<?xml version="1.0" encoding="UTF-8" standalone="no"?>
<svg
   viewBox="0 0 8000 8063"
   version="1.1"
   id="svg187"
   sodipodi:docname="BubbaCamperW.svg"
   inkscape:version="1.4.2 (f4327f4, 2025-05-13)"
   xmlns:inkscape="http://www.inkscape.org/namespaces/inkscape"
   xmlns:sodipodi="http://sodipodi.sourceforge.net/DTD/sodipodi-0.dtd"
   xmlns="http://www.w3.org/2000/svg"
   xmlns:svg="http://www.w3.org/2000/svg">
  <sodipodi:namedview
     id="namedview187"
     pagecolor="#505050"
     bordercolor="#eeeeee"
     borderopacity="1"
     inkscape:showpageshadow="0"
     inkscape:pageopacity="0"
     inkscape:pagecheckerboard="0"
     inkscape:deskcolor="#505050"
     inkscape:zoom="0.099361526"
     inkscape:cx="2999.1488"
     inkscape:cy="4101.185"
     inkscape:window-width="2560"
     inkscape:window-height="1351"
     inkscape:window-x="2391"
     inkscape:window-y="-9"
     inkscape:window-maximized="1"
     inkscape:current-layer="svg187" />
  <defs
     id="defs1">
    <style
       id="style1">
      .g {
        stroke: #c17386;
      }

      .g, .h, .i, .j, .k, .l {
        fill: none;
        stroke-miterlimit: 10;
      }

      .g, .i, .k, .l {
        stroke-width: 20px;
      }

      .m {
        fill: #537691;
      }

      .m, .n, .o, .p, .q, .r, .s, .t, .u, .v {
        stroke-width: 0px;
      }

      .n {
        fill: #ecaec8;
      }

      .h {
        stroke-width: 14px;
      }

      .h, .j {
        stroke: #344560;
      }

      .i {
        stroke: #fff;
      }

      .o {
        fill: #e28021;
      }

      .p {
        fill: #fff;
      }

      .j {
        stroke-width: 10px;
      }

      .q {
        fill: #344560;
      }

      .r {
        fill: #d5eff7;
      }

      .s {
        fill: #91bdce;
      }

      .t {
        fill: #173046;
      }

      .u {
        fill: #e1d195;
      }

      .k {
        stroke: #1d2c4a;
      }

      .v {
        fill: #c17386;
      }

      .l {
        stroke: #537691;
      }
    </style>
  </defs>
  <g
     id="a"
     data-name="Layer 4"
     transform="translate(-273.17928,-294.59861)">
    <g
       id="g123">
      <path
         class="o"
         d="m 1574.62,5386.42 c 11.28,24.15 23.18,44.46 30.51,66.31 19.21,57.25 41.46,112.97 74.63,163.66 15.39,23.52 15.36,42.81 -0.76,68.24 -23.57,37.18 -40.83,78.49 -59.43,118.66 -21.81,47.12 -54.31,62.93 -104.84,48.66 -16.55,-4.68 -28.15,-15.14 -32.29,-32.09 -6.66,-27.29 -24.49,-47.5 -40.24,-69.59 -10.75,-15.08 -14.72,-34.86 -22.62,-52.13 -16.89,-36.95 -34.42,-73.6 -51.47,-110.47 -1.32,-2.84 -0.93,-6.47 -1.54,-11.39 19.2,-2.28 37.74,-5.63 56.39,-6.39 20.27,-0.82 33.14,-9.83 43.96,-26.82 29.36,-46.1 60.17,-91.27 90.65,-136.64 4.19,-6.24 9.77,-11.54 17.05,-20.01 z"
         id="path1" />
      <path
         class="o"
         d="m 5053.31,1299.9 c -3.05,5.16 -4.94,9.13 -7.52,12.58 -25.33,33.83 -41.29,66 -18.45,111.2 23.86,47.23 37.6,99.57 56.38,151.35 -6.14,1.94 -10.62,5.06 -14.07,4.18 -56.97,-14.65 -113.56,-30.9 -170.8,-44.34 -25.19,-5.91 -51.62,-6.91 -77.58,-9.07 -19.76,-1.65 -29.07,-12.84 -37.03,-30.06 -20.44,-44.25 -41.56,-88.34 -65.35,-130.84 -16.19,-28.92 -21.38,-54.32 3.65,-80.11 3.9,-4.02 6.28,-9.48 9.53,-14.16 16.21,-23.36 28.72,-29.56 54.78,-21.86 28.67,8.48 56.36,12.12 86.7,7.43 16.25,-2.51 34.54,7.91 51.87,12.65 38.99,10.68 77.57,23.23 118.38,25.56 1.98,0.11 3.84,2.13 9.54,5.47 z"
         id="path2" />
      <path
         class="o"
         d="m 2993.44,1481.65 c 3.04,20.95 7.04,39.83 8.17,58.88 1.07,18.07 9.45,28.25 24.72,37.3 49.91,29.58 98.92,60.69 148.14,91.43 4.44,2.77 7.9,7.09 14.24,12.91 -23.05,12.34 -43.07,24.5 -64.25,34.06 -31.06,14.01 -63.65,24.74 -94.29,39.56 -25.43,12.29 -49.13,28.22 -73.32,42.99 -19.18,11.71 -35.4,11.22 -56.59,-0.37 -42.69,-23.36 -87.37,-43.79 -132.9,-61 -31.88,-12.05 -44.13,-32.51 -44.24,-64 -0.03,-9.12 0.11,-18.27 -0.65,-27.34 -1.7,-20.32 10.54,-31.81 26.11,-40.24 17.67,-9.56 40.16,-13.66 53.48,-27.13 34.12,-34.5 82.73,-39.64 120.89,-65.53 19.96,-13.55 44.57,-20.24 70.49,-31.51 z"
         id="path3" />
      <path
         class="o"
         d="m 1351.89,3202.92 c 25.22,17.22 46.56,41.02 71.82,46.39 24.39,5.19 52.86,-8.47 79.47,-14.15 36.68,-7.83 73.26,-16.08 109.96,-23.78 5.27,-1.11 10.98,-0.15 19.66,-0.15 -7.75,24.32 -12.15,47.47 -22.2,67.82 -26.24,53.12 -49.49,107.08 -59.78,165.73 -5.29,30.12 -19.11,44.85 -52.07,51.81 -43.94,9.27 -85.39,30.21 -128.04,45.79 -10.61,3.88 -21.53,7.7 -32.62,9.16 -7.24,0.95 -17.13,0.04 -22.21,-4.29 -17.29,-14.73 -35.76,-29.47 -48.14,-47.99 -6.64,-9.93 -5.75,-29.03 -1.24,-41.44 9.97,-27.46 22.56,-53.22 19.09,-84.17 -1.08,-9.68 8.42,-20.37 12.48,-30.83 17.87,-46.08 35.53,-92.25 53.84,-139.9 z"
         id="path4" />
      <path
         class="o"
         d="m 7371.05,5013.84 c -16.82,-8.82 -33.18,-15.95 -47.97,-25.5 -19.14,-12.37 -35.93,-11.95 -57.25,-2.61 -54.98,24.08 -111.46,44.75 -167.92,67.02 -2.37,-3.56 -5.96,-6.47 -5.6,-8.77 3.3,-21 4.46,-42.9 11.59,-62.61 22.32,-61.73 26.98,-126.32 33.4,-190.56 1.87,-18.74 9.88,-27.78 25.65,-35.79 43.47,-22.08 86.06,-45.9 129.03,-68.99 10.01,-5.38 19.74,-11.63 30.32,-15.53 7.06,-2.6 17.28,-5.05 22.81,-1.87 22.57,12.97 45.8,26.05 64.65,43.55 7.16,6.65 7.42,26.79 3.44,38.2 -9.28,26.61 -9.12,52.49 -6.16,79.76 1.37,12.6 -3.91,25.99 -6.53,38.95 -9.57,47.42 -19.29,94.8 -29.47,144.76 z"
         id="path5" />
      <path
         class="o"
         d="m 6969.11,2696.23 c -66.07,-0.7 -97.88,36.76 -116.27,94.01 -11.74,36.58 -31.14,70.71 -47.36,105.83 -2.2,4.77 -5.81,8.89 -10.89,16.47 -14.6,-20.63 -29.87,-37.2 -39.4,-56.59 -28.25,-57.53 -64.95,-109.14 -106.37,-157.43 -16.48,-19.21 -15.94,-35.16 -6.71,-58.44 17.92,-45.19 31.47,-92.31 43.96,-139.39 7.25,-27.31 18.64,-45.63 49.16,-47.2 10.08,-0.52 19.95,-4.26 30,-6.05 22.13,-3.95 40.72,4.07 50.48,24.44 11.98,24.99 29.7,44.3 49.75,63.05 13.58,12.7 21.69,31.21 32.38,47.03 22.03,32.61 44.25,65.09 66.1,97.82 2.29,3.43 2.64,8.16 5.15,16.46 z"
         id="path6" />
      <path
         class="o"
         d="m 1337.75,5506.26 c -6.79,-46.48 -22.65,-86.62 -43.28,-125.62 -9.83,-18.57 -14.19,-40.54 -18.28,-61.51 -5.25,-26.87 -10.22,-53.04 -26.03,-76.62 -7.93,-11.83 -1.1,-20.76 13.98,-23.31 2.23,-0.38 4.61,-0.62 6.81,-0.26 43.08,7.13 70,-15.46 94.13,-47.63 25.19,-33.58 53.42,-64.9 80.79,-96.81 6.99,-8.15 15.76,-14.79 28.13,-26.19 9.59,38.93 16.72,71.97 25.99,104.39 9.31,32.55 21.02,64.41 31.21,96.72 7.5,23.79 15.34,47.59 20.68,71.9 1.63,7.43 -2.83,17.62 -7.33,24.77 -32.05,50.94 -65.08,101.28 -97.21,152.17 -7.02,11.13 -16.29,15.5 -28.44,14.64 -25.93,-1.84 -51.82,-4.2 -81.15,-6.64 z"
         id="path7" />
      <path
         class="o"
         d="m 3061.4,1456.11 c 40.4,-16.22 78.37,-27.57 112.21,-46.36 24.08,-13.38 49.95,-20 74.88,-27.89 28.89,-9.15 59.78,-11.36 80.82,-36.23 18.89,10.58 19.55,25.97 18.62,40.25 -2.19,33.38 14.05,54.51 39.88,73.23 37.68,27.3 73.43,57.29 109.64,86.59 7.54,6.1 13.44,14.22 24.68,26.36 -36.56,10.35 -67.95,18.25 -98.68,28.2 -34.36,11.13 -68.07,24.24 -102.15,36.25 -21.38,7.53 -42.59,16.05 -64.56,21.17 -8.49,1.98 -20.04,-2.23 -28.22,-7.01 -50.95,-29.74 -101.24,-60.59 -151.96,-90.73 -12.94,-7.69 -19.9,-17.56 -18.8,-33.19 1.73,-24.65 2.58,-49.37 3.64,-70.64 z"
         id="path8" />
      <path
         class="o"
         d="m 1226.28,5030.24 c -35.14,-10.91 -36.09,-34.93 -33.67,-66.73 1.89,-24.75 0.89,-54.44 -22.21,-74.77 -9,-7.92 -16.31,-19.26 -7.48,-29.78 5.49,-6.55 17.06,-8.75 26.36,-11.09 6.41,-1.61 14.19,-1.81 20.35,0.3 31.23,10.71 50.87,-5.27 71.77,-25.78 38.84,-38.12 80.16,-73.72 119.16,-109.21 21.25,5.98 19.38,20.99 20.7,34.23 3.02,30.5 3.9,61.39 9.35,91.44 7.68,42.29 17.7,84.24 28.73,125.79 5.67,21.37 0.56,36.67 -13.78,52.69 -36.39,40.67 -71.54,82.45 -106.68,124.22 -16.42,19.53 -24.65,22.76 -50.34,15.69 -6.59,-1.82 -13,-4.81 -19.7,-5.64 -25.66,-3.17 -45.65,-8.37 -54.98,-39.67 -8.19,-27.47 -5.63,-48.43 9.69,-70.27 1.19,-1.69 1.09,-4.29 2.73,-11.43 z"
         id="path9" />
      <path
         class="o"
         d="m 1379.08,3131.65 c 33,-33.91 40.27,-77.15 57.51,-115.78 12.75,-28.58 29.99,-55.12 43.88,-83.23 9.88,-20.01 17.52,-41.13 27.8,-65.68 5.46,2.35 13.94,4.36 20.38,9.14 10.94,8.12 19.68,19.38 31.05,26.66 8.98,5.76 20.83,11.31 30.86,10.47 55.45,-4.65 110.71,-11.54 166.1,-17.02 10.63,-1.05 21.55,0.77 35.88,1.42 -3.53,10.61 -4.61,17.21 -7.72,22.66 -25.81,45.33 -52.86,89.98 -77.71,135.83 -13.99,25.8 -24.87,53.33 -36.48,80.37 -7.14,16.62 -20.17,22.76 -36.87,26.28 -54.49,11.47 -109.08,22.74 -162.92,36.79 -18.25,4.76 -30.16,2.81 -41.86,-11.29 -15.19,-18.32 -31.43,-35.77 -49.89,-56.62 z"
         id="path10" />
      <path
         class="o"
         d="m 1552.6,2794.12 c 11.09,-39.94 29.1,-72.57 78.05,-78.59 -21.62,-34.98 0.39,-51.16 19.37,-71.95 17.92,-19.63 39.01,-39.02 37.54,-71.78 -1.18,-26.41 20.47,-34.82 41.83,-18.36 7.88,6.07 14.84,14.31 19.81,22.95 10.98,19.08 26.6,24.89 48.11,25.1 54.56,0.54 109.1,3.24 163.64,5.35 6.39,0.25 12.71,2.19 24.5,4.34 -8.02,14.48 -13.11,26.66 -20.78,36.91 -17,22.73 -34.02,45.69 -53.36,66.37 -28.59,30.56 -45.76,67.79 -63.26,104.48 -13.99,29.33 -35.89,37.94 -65.55,38.5 -36.4,0.68 -72.78,2.9 -109.12,5.19 -13.53,0.85 -26.95,3.63 -40.37,5.79 -23.39,3.75 -39.28,-6.45 -50.76,-26.11 -9.11,-15.61 -18.92,-30.81 -29.65,-48.19 z"
         id="path11" />
      <path
         class="o"
         d="m 3534.68,1324.46 c 4.28,-34.97 26.67,-35.36 50.97,-36.31 32.21,-1.26 64.49,-1.82 90.27,-28.68 16.26,-16.94 35.3,-7.76 37.84,15.89 1.21,11.26 2.56,23.58 -0.7,34.01 -7,22.45 3.4,36.71 17.7,51.25 36.75,37.38 73.06,75.19 109.18,113.18 5.76,6.06 9.65,13.9 17.39,25.31 -16.36,4.73 -27.71,9.98 -39.46,11.09 -71.44,6.77 -142.07,17.7 -209.81,42.07 -25.3,9.1 -42.72,0.85 -61.58,-15.52 -36.86,-32 -75.07,-62.52 -113.81,-92.23 -27.75,-21.28 -31.79,-29.14 -22.86,-63.58 1.14,-4.42 2.45,-8.79 3.71,-13.18 4.39,-15.29 -5.49,-35.76 16.45,-44.68 27.11,-11.02 53.64,-27.39 83.42,-6.56 4.31,3.02 10.13,3.88 21.29,7.93 z"
         id="path12" />
      <path
         class="o"
         d="m 5572.11,1506.81 c 27.76,-17.29 47.8,-7.36 70.14,11.88 20.66,17.79 45.35,33.41 76.85,28.88 8.45,-1.22 23.72,4.11 25.94,10.11 3.24,8.74 -1.06,21.37 -4.91,31.26 -2.69,6.91 -9.01,13.64 -15.46,17.65 -21.98,13.67 -24.45,33.92 -21.88,56.71 5.99,53.02 11.99,106.04 17.42,159.12 0.72,7.06 -1.91,14.46 -3.86,27.55 -26.65,-14.66 -50.03,-25.55 -71.32,-39.62 -49.64,-32.83 -104.06,-55.51 -159.12,-76.55 -19.75,-7.55 -29.5,-19.04 -32.57,-38.97 -3.63,-23.59 -7.37,-47.25 -12.82,-70.46 -6.73,-28.68 -14.35,-57.24 -23.34,-85.29 -7.13,-22.26 -3.85,-40.18 14.92,-54.6 6.31,-4.85 14.49,-8.36 18.76,-14.58 19,-27.66 43.68,-28.57 70.95,-16.12 9.71,4.43 19.33,10.71 26.6,18.4 8.35,8.84 14.04,20.18 23.69,34.63 z"
         id="path13" />
      <path
         class="o"
         d="m 7009.87,2759.99 c 3.04,8.65 6.66,18 9.62,27.56 9.48,30.54 32.59,52.91 47.56,80.09 13.54,24.58 27.96,49.17 37.28,75.43 7.03,19.79 14.03,37.51 29.98,52.04 14.33,13.06 11.18,22.62 -7.32,29.44 -4.26,1.57 -8.79,3.03 -13.26,3.27 -42.21,2.29 -62.33,30.64 -80.41,64.22 -21.59,40.1 -46.21,78.57 -69.89,117.52 -2.8,4.61 -7.91,7.82 -15.6,15.18 -13.1,-28.67 -26.8,-54.35 -36.74,-81.41 -14.2,-38.66 -31.74,-74.95 -55.4,-108.91 -12.82,-18.4 -20.84,-40.51 -28.75,-61.79 -2.64,-7.09 0.01,-17.57 3.27,-25.21 22.32,-52.37 46.42,-104 67.81,-156.73 7.93,-19.54 18.68,-30.6 39.73,-30.67 23.67,-0.08 47.35,-0.02 72.12,-0.02 z"
         id="path14" />
      <path
         class="o"
         d="m 7194.44,3199.83 c 13.39,8.38 28.93,13.26 35.8,23.8 6.64,10.2 1.16,27.71 6.63,39.37 11.92,25.4 10.78,57.44 41.83,73.93 16.78,8.91 12.42,29.19 -6.19,36.84 -10.19,4.19 -22.35,7.09 -33.05,5.81 -27.41,-3.27 -44.76,9.09 -60.27,29.85 -30.64,41.01 -62.6,81.04 -94.33,121.23 -4.62,5.85 -10.97,10.34 -20.26,18.91 -6,-13.37 -11.59,-22.83 -14.57,-33.05 -8.26,-28.37 -13.6,-57.71 -23.45,-85.47 -14.77,-41.65 -30.45,-83.23 -49.58,-122.99 -10.64,-22.13 -7.59,-38.31 5.42,-56.46 15.92,-22.21 31.42,-44.79 45.75,-68.04 11.28,-18.31 21.42,-37.46 30.47,-56.97 15.94,-34.37 27.24,-41.01 66.48,-35.86 2.26,0.3 4.57,0.86 6.79,0.66 27.73,-2.6 49.67,1.91 62.67,32.21 11.85,27.61 14.95,39.39 -0.15,76.25 z"
         id="path15" />
      <path
         class="o"
         d="m 6985.03,5383.16 c 12.25,-33.93 19.76,-61.41 31.88,-86.67 17.39,-36.26 30.1,-72.93 34.63,-113.32 2.47,-22.07 12.42,-43.76 21.73,-64.38 3.58,-7.93 13.91,-14.44 22.63,-18.15 53.33,-22.68 107.14,-44.25 160.67,-66.46 14.52,-6.03 27.42,-7.84 40.64,4.1 17.53,15.83 36.42,30.14 56.18,46.3 -3.03,7.45 -5.28,14.76 -8.82,21.39 -16.8,31.41 -14.67,67.43 -24.87,100.53 -8.1,26.29 -9.91,55.02 -23.26,79.13 -10.4,18.78 -15.72,36.76 -15.36,58.05 0.44,25.66 -7.78,29.35 -31.37,16.77 -1,-0.54 -2.14,-0.95 -2.95,-1.71 -31.58,-29.74 -65.75,-26.87 -104.1,-13.06 -39.44,14.2 -80.91,22.81 -121.65,33.27 -9.41,2.42 -19.46,2.38 -35.98,4.22 z"
         id="path16" />
      <path
         class="o"
         d="m 5121.5,1322.59 c 43.15,12.8 81.58,24.24 120.04,35.57 24.6,7.25 50.91,11 73.43,22.33 26.88,13.52 53.06,25.26 84.02,21.53 6.39,20.86 -3.99,34.25 -13.55,45.71 -18.91,22.68 -19.67,45.88 -12.09,73.23 12.47,44.93 21.99,90.7 32.32,136.21 2.44,10.76 3.18,21.91 5.19,36.46 -9.13,-1.73 -15.44,-1.95 -20.99,-4.14 -50.78,-20.03 -101.15,-41.13 -152.23,-60.34 -24.33,-9.15 -49.82,-15.38 -75.02,-22.05 -20.05,-5.3 -28.81,-19.06 -35.39,-37.63 -18.23,-51.45 -37.14,-102.72 -57.89,-153.19 -7.8,-18.97 -4.24,-32.71 8.3,-46.35 15.31,-16.67 30.75,-33.21 43.86,-47.35 z"
         id="path17" />
      <path
         class="o"
         d="m 7181.36,5537.05 c 1.37,4.99 1.37,10.11 3.87,13.2 15.04,18.6 6.49,33.06 -6.33,48.27 -21.41,25.42 -36.27,52.88 -32.33,88.66 3.02,27.38 -14.6,36.82 -39.28,22.93 -7.75,-4.36 -16.19,-9.9 -20.71,-17.14 -14.22,-22.77 -34.87,-22.43 -57.17,-19.01 -39.22,6.02 -78.4,12.3 -117.7,17.76 -18.78,2.61 -37.78,3.59 -56.28,5.27 -10.73,-16.88 -1.42,-28.45 4.78,-39.96 15.58,-28.91 33.46,-56.72 47.18,-86.46 16.11,-34.92 30.29,-70.91 42.44,-107.39 8.43,-25.3 24.78,-35.88 49.33,-40.04 49.25,-8.36 98.48,-16.71 144.73,-37.43 23.52,-10.54 44.53,-4.64 60.2,16.78 4.03,5.51 7.87,11.18 12.27,16.37 11.08,13.09 30.33,20.68 23.49,44.52 -8.01,27.89 -14.72,55.4 -47.15,65.33 -3.93,1.2 -7.04,5.09 -11.33,8.33 z"
         id="path18" />
      <path
         class="o"
         d="m 1619.54,6051.51 c -13.48,-12.95 -26.71,-26.66 -34.33,-47.35 -6.66,-18.08 -17.16,-40.69 -41.93,-50.67 -18.51,-7.45 -14.47,-26.88 5.22,-34.94 11.52,-4.72 22.94,-10.58 34.99,-12.93 26.95,-5.26 38.39,-25.72 49.32,-46.91 24.47,-47.42 48.51,-95.06 72.94,-142.5 1.94,-3.78 5.61,-6.66 11.64,-13.6 28.48,51.44 54.01,99.47 81.45,146.39 15.99,27.34 34.59,53.21 52.89,79.12 13.72,19.43 15.18,103.32 1.27,123.88"
         id="path19" />
      <path
         class="o"
         d="m 2880.81,1835.37 c -52.65,31.33 -100.83,58.95 -147.86,88.39 -26.95,16.87 -52.27,36.41 -77.87,55.36 -14.6,10.81 -26.68,10.85 -43.26,1.12 -36.08,-21.19 -73.27,-40.97 -111.58,-57.74 -49.23,-21.55 -72.59,-52.99 -70.55,-107.02 0.32,-8.45 7.49,-19.37 14.77,-24.2 12.09,-8.02 26.4,-14 40.59,-17.24 17.51,-3.99 33.34,-9.82 42.33,-25.62 16.52,-28.99 50.37,-33.34 73.43,-53.18 8.55,-7.35 17.19,-11.62 21.37,-23.83 2.53,-7.38 14.08,-11.66 26.06,-20.73 11.13,25.4 21.34,45.45 28.63,66.51 4.91,14.17 12.3,21.86 26.27,28.17 49.77,22.45 98.63,46.93 147.65,71.03 8.92,4.39 16.94,10.63 29.99,18.97 z"
         id="path20" />
      <path
         class="o"
         d="m 1515.85,3541.85 c -14.38,54.48 -29.59,108.83 -42.81,163.66 -6.36,26.37 -9.49,53.58 -13.08,80.54 -3.32,24.93 -16.29,36.29 -41.4,41.95 -38.61,8.69 -77.05,20.18 -113.67,35.12 -45.49,18.57 -83.04,13.26 -118.4,-21.59 -11.82,-11.65 -14.27,-22.73 -11.17,-36.36 2.24,-9.87 6.12,-19.92 11.6,-28.37 12,-18.49 20.34,-37.4 15.65,-59.99 -5.73,-27.58 11.67,-50.89 14.64,-77.13 1.72,-15.15 9.7,-27.46 0.03,-44.36 -7.8,-13.63 9.71,-27.63 26.19,-22.09 11.83,3.98 24.61,7.48 34.42,14.67 20.19,14.8 40.11,11.05 60.95,3.83 48.32,-16.73 96.56,-33.72 145.09,-49.82 9.91,-3.29 20.96,-11.23 31.96,-0.06 z"
         id="path21" />
      <path
         class="o"
         d="m 6602.63,2627.81 c -36.68,-46.46 -68.89,-88.76 -102.8,-129.66 -20.24,-24.41 -42.88,-46.88 -64.92,-69.74 -16.15,-16.75 -18.54,-31.03 -6.51,-54.15 17.1,-32.87 30.48,-69.26 37.07,-105.66 10.24,-56.59 45.96,-80.21 96.84,-88.68 8.13,-1.35 20.07,3.78 26.07,9.97 8.44,8.71 14.57,20.61 18.84,32.2 10.44,28.3 31.66,45.13 56.92,58.68 4.69,2.51 9.71,6.25 12.19,10.74 18.5,33.51 19.26,34.55 58.52,58.09 14.8,8.87 15.1,25.73 0.32,35.77 -10.33,7.02 -20.29,15.75 -31.8,19.65 -28.18,9.55 -34.44,33.04 -41.99,57.28 -14.54,46.69 -30.27,93.01 -45.85,139.37 -2.43,7.22 -6.73,13.81 -12.88,26.14 z"
         id="path22" />
      <path
         class="o"
         d="m 7152.54,4714.52 c 6.87,-65.7 13.89,-123.96 18.61,-182.41 1.81,-22.36 -2.7,-45.17 -2.4,-67.74 0.52,-39.76 2.56,-38.98 38.31,-54.49 35.25,-15.3 69.89,-32.71 102.78,-52.55 41.6,-25.1 93.51,-23.41 128.07,9.56 5.59,5.33 8.75,16.06 8.4,24.09 -0.53,12.28 -2.54,25.82 -8.43,36.3 -14.81,26.37 -6.7,52.28 -2.54,78.6 1.01,6.39 3.41,13.46 1.76,19.23 -7.99,27.87 -14.76,54.63 2.47,82.46 7.88,12.73 -4.97,28.09 -20.58,26.09 -12.31,-1.58 -24.9,-4.4 -36.25,-9.29 -24.46,-10.54 -46.31,-3.69 -67.7,7.62 -43.1,22.79 -85.89,46.19 -129.01,68.95 -8.71,4.6 -18.32,7.51 -33.47,13.58 z"
         id="path23" />
      <path
         class="o"
         d="m 4743.55,1507.93 c -49.46,-6.56 -91.89,-13.13 -134.55,-17.6 -45.14,-4.73 -90.48,-7.64 -135.76,-10.94 -14.48,-1.06 -21.27,-8.57 -26.83,-21.78 -16.68,-39.68 -31.79,-80.61 -53.78,-117.3 -27.91,-46.56 -18.58,-85.98 10.24,-126.11 7.85,-10.94 17.71,-14.02 29.69,-11.19 11.05,2.61 22.75,4.88 32.44,10.34 26.91,15.16 54.08,10.52 81.73,4.24 5.15,-1.17 11.33,-3.07 15.74,-1.34 27.97,10.98 55.37,14.57 84.46,2.72 16.79,-6.84 28.4,5.34 24.69,23.91 -2,10.02 -3.37,20.84 -8.23,29.5 -14.86,26.48 -5.92,49.87 6.19,73.77 22.06,43.53 43.87,87.19 65.15,131.1 4.12,8.51 5.38,18.41 8.81,30.69 z"
         id="path24" />
      <path
         class="o"
         d="m 1155.89,4758.5 c 8.83,-41.53 3.27,-74.44 -15.73,-91.78 18.45,-16.09 16.1,-35.86 6.57,-54.83 -11.14,-22.17 -16.5,-43.64 -10.56,-68.93 2.44,-10.41 -5.48,-23.26 -9.06,-36.38 12.04,-12.44 27.81,-8.33 40.02,-2.31 33.08,16.29 57.76,2.37 84.67,-15.6 42.33,-28.26 86.77,-53.37 132.07,-80.88 18.62,28.66 12.65,58.83 15.45,87.11 3.67,37.09 2.85,74.84 9.32,111.35 4.95,27.92 0.48,47.45 -21.29,66.27 -42.08,36.37 -82.6,74.59 -122.9,112.95 -13,12.37 -25.41,18.1 -42.65,10.4 -22.51,-10.05 -48.57,-13.6 -65.91,-37.38 z"
         id="path25" />
      <path
         class="o"
         d="m 2179.89,2376.66 c -10.45,16.45 -16.54,30.04 -26.13,40.4 -36.26,39.2 -75.1,76.04 -103.09,122.3 -12.63,20.87 -29.45,29.46 -56.75,27.31 -54.13,-4.26 -108.76,-2.78 -163.18,-2.46 -19.18,0.11 -33.25,-4.83 -41.02,-23.45 -3.93,-9.42 -9.49,-18.15 -13.6,-27.5 -14.68,-33.37 -14.23,-33.08 12.6,-59.96 10.38,-10.4 20.12,-21.95 27.7,-34.46 3.98,-6.57 2.64,-16.36 3.99,-26.98 22.3,-0.22 35,-16.35 44.08,-36.44 2.75,-6.09 2.43,-14.08 6.28,-19.07 18.05,-23.46 37.06,-46.18 58.44,-72.49 9.06,12.69 18.91,24.66 26.72,37.84 13.12,22.16 31.46,33.46 57.1,38.3 53.44,10.08 106.32,23.15 166.87,36.65 z"
         id="path26" />
      <path
         class="o"
         d="m 5915.09,1650.51 c -1.76,28.25 17.54,36.79 38.04,40.09 23.8,3.83 42.2,14.54 59.06,30.88 5.9,5.72 15.77,7.27 23.71,10.97 5.67,2.65 11.15,5.72 21.13,10.9 -12.44,11.36 -21.35,21.38 -32.04,28.87 -23.26,16.3 -33.19,37.16 -34.57,66.11 -2.59,54.27 -9.3,108.34 -14.37,163.32 -32.26,1.5 -50.24,-20.1 -70.87,-33.83 -33.02,-21.98 -62.77,-48.13 -101.14,-62.42 -25.17,-9.37 -40.2,-28.05 -41.55,-59.95 -2.25,-53.2 -10.76,-106.2 -18.05,-159.09 -2.64,-19.16 0.36,-33.46 18.09,-43.42 10.91,-6.13 20.79,-14.08 31.56,-20.5 21.72,-12.94 29.53,-10.89 50.76,5.62 14.12,10.99 29.94,20.23 46.11,27.88 5.09,2.41 13.82,-2.86 24.11,-5.42 z"
         id="path27" />
      <path
         class="o"
         d="m 7341.13,3544.83 c -19.87,17.74 -10.04,37.38 0.54,56.75 3.77,6.9 10.8,12.56 12.81,19.77 7.67,27.43 13.9,55.26 21.75,87.4 -13.09,0 -26.88,2.82 -38.91,-0.58 -26.2,-7.39 -45.14,0.3 -64.79,18.11 -39.44,35.74 -81.07,69.06 -121.87,103.3 -3.37,2.83 -7.23,5.09 -12.3,8.62 -20.02,-24.91 -20.13,-55.3 -25.78,-83.09 -6.99,-34.36 -9.39,-69.4 -25.92,-101.55 -15,-29.17 -10.37,-53.96 13.79,-79.74 32.42,-34.61 60.32,-73.68 88.12,-112.3 21.53,-29.92 25.71,-33.34 61.84,-26.42 8.9,1.7 17.99,2.77 26.67,5.23 26.96,7.65 27.81,10.01 31.6,39.47 2.14,16.67 5.56,33.57 11.52,49.17 2.53,6.63 13.06,10.2 20.93,15.87 z"
         id="path28" />
      <path
         class="o"
         d="m 7049.94,5882.38 c -26.93,3.51 -36.23,23.09 -41.34,46.17 -1.69,7.65 -0.53,16.76 -4.33,22.94 -7.69,12.49 -19.57,22.51 -26.53,35.29 -6.09,11.17 -7.81,24.72 -13.34,43.67 -13.44,-12.88 -24.59,-20.6 -31.8,-31.05 -17.32,-25.09 -40.51,-33.14 -70.15,-33.77 -54.38,-1.14 -108.69,-5.36 -169.53,-8.65 14.37,-27.53 24.19,-51.65 38.55,-72.67 25.08,-36.71 50.27,-73 66.82,-114.66 7.8,-19.63 22.06,-28.26 44.72,-30.29 55.32,-4.95 111.3,-6.01 165.27,-22.2 17.68,-5.3 33.58,-1.85 44.02,16.34 6.21,10.81 15.2,19.98 21.83,30.58 14.73,23.59 13.15,27.06 -4.04,49.89 -10.76,14.3 -19.4,30.57 -26.48,47.03 -2.19,5.09 3.86,13.73 6.35,21.38 z"
         id="path29" />
      <path
         class="o"
         d="m 4148.21,1470.38 c -27.94,3.12 -50.17,7.1 -72.5,7.75 -38.57,1.13 -77.08,-0.97 -114.66,11.92 -26.81,9.19 -48.5,3.69 -69.27,-20.48 -34.65,-40.33 -74.19,-76.5 -112.24,-113.84 -14.51,-14.24 -21.41,-28.74 -11.75,-48.65 4.43,-9.14 6.31,-19.49 9.73,-29.16 10.61,-30.05 12.75,-28.31 46.76,-31.3 22.75,-2 50.97,5.83 67.25,-22.61 18.55,21.16 38.83,13.69 59.28,5.35 10.34,-4.22 20.59,-10.18 31.35,-11.52 23.98,-2.98 49.69,6.82 70.81,-16.87 1.97,2.29 3.93,4.58 5.9,6.86 -1.09,12.78 0.69,26.69 -3.8,38.14 -12.98,33.12 -1.39,58.44 17.95,85.1 23.3,32.11 43.18,66.78 63.35,101.04 5.51,9.36 6.76,21.23 11.85,38.25 z"
         id="path30" />
      <path
         class="o"
         d="m 1411.12,4117.84 c -5.14,49.8 -10.34,90.22 -13.15,130.79 -1.97,28.32 -1.73,56.91 -0.48,85.29 0.92,20.72 -6.07,32.33 -25.23,42.41 -45.25,23.79 -89.16,50.25 -132.68,77.15 -17.5,10.82 -32.98,14.13 -50.48,2.07 -3.6,-2.48 -8.08,-4.15 -12.39,-5.08 -38.29,-8.3 -37.44,-8.26 -38.86,-45.21 -0.91,-23.71 -5.25,-47.28 -7.21,-70.98 -1.49,-18.06 -6.87,-38.07 -1.24,-53.92 9.01,-25.34 3.36,-48.93 1.81,-73.28 -1.35,-21.33 3.53,-27.23 24.65,-24.22 12.24,1.74 25.12,4.76 35.76,10.69 20.71,11.55 38.4,7.03 57.87,-3.2 41.29,-21.69 83.27,-42.08 125.33,-62.25 9.28,-4.45 20.05,-5.79 36.29,-10.26 z"
         id="path31" />
      <path
         class="o"
         d="m 6637.3,6044.88 c 18.3,-33.08 0.84,-5.86 27.47,-51.12 10.78,-18.32 24.46,-23.67 45.24,-21.62 47.53,4.7 95.25,7.68 142.95,10.28 24.25,1.32 38.56,12.78 56.24,30.37 22.72,12.54 23.09,23.54 11.09,39.21"
         id="path32" />
      <path
         class="o"
         d="m 2394.61,2179.22 c -18,19.13 -28.34,34.5 -42.51,44.35 -45.21,31.46 -83.04,70.53 -119.59,111.01 -11.35,12.57 -23.38,16.14 -39.33,11.97 -50.5,-13.19 -100.98,-26.52 -151.78,-38.49 -20.59,-4.85 -35.4,-13.22 -40.7,-35.33 -1.66,-6.92 -8.22,-12.72 -12.75,-18.87 -9.94,-13.48 -11.42,-27.17 -0.05,-40.34 29.5,-34.18 56.84,-70.79 89.89,-101.15 20.56,-18.88 42.14,-35.23 56.76,-59.88 7.79,-13.14 20.54,-11.88 30.55,1.33 7.5,9.9 13.8,20.99 18.94,32.32 10.08,22.22 25.47,35.09 49.93,41.89 51.09,14.21 101.19,31.98 160.65,51.18 z"
         id="path33" />
      <path
         class="o"
         d="m 6192.82,2194.37 c -28,-25.56 -49.61,-46.95 -72.98,-66.22 -31.42,-25.91 -63.63,-50.96 -96.65,-74.78 -13.07,-9.43 -17.27,-19.96 -15.43,-34.71 6.74,-54.04 14.06,-108.01 19.71,-162.16 1.95,-18.67 5.98,-33.17 26.34,-38.59 5.04,-1.34 9.49,-5.97 13.53,-9.81 23.79,-22.55 28.89,-22.28 54.22,-4.8 32.62,22.51 68.63,40.7 98.78,66 26.32,22.09 52.64,43.81 83.49,58.22 -7.61,24.1 -21.68,35.37 -37.88,43.93 -21.95,11.6 -32.9,29.49 -36.94,53.65 -7.85,46.99 -16.83,93.8 -25.77,140.6 -1.37,7.19 -4.99,13.96 -10.44,28.67 z"
         id="path34" />
      <path
         class="o"
         d="m 7425.09,4020.01 c -22.12,-1.31 -41.17,-1.08 -59.76,-3.91 -20.33,-3.09 -37.11,-0.16 -54.23,12.78 -38.94,29.44 -79.21,57.17 -119.48,84.8 -21.76,14.93 -29.96,10.83 -32.16,-15.09 -2.38,-28.04 -2.88,-56.26 -5.87,-84.22 -3.74,-34.88 -9.02,-69.6 -13.98,-104.34 -2,-13.96 -2.53,-25.42 11.11,-36.09 42.98,-33.62 85.08,-68.42 126.45,-104.01 13.67,-11.76 27.06,-15.62 43.75,-10.77 5.41,1.57 10.93,4.31 16.34,4.15 46.35,-1.32 39.95,11.88 47.85,41.06 5.91,21.84 12.28,43.57 17.59,65.55 3.98,16.5 10.17,33.57 9.05,49.95 -1.92,28.03 2.23,53.92 13.14,79.38 1.6,3.73 0.22,8.74 0.22,20.75 z"
         id="path35" />
      <path
         class="o"
         d="m 1439.19,3862.78 c -0.99,17 0.89,31.3 -3.03,43.77 -13.91,44.23 -15.14,89.71 -16.26,135.26 -0.65,26.45 -13.32,39.94 -38.61,48.83 -30.87,10.85 -59.49,28.03 -89.31,41.98 -29.89,13.98 -59.62,27.34 -94.53,17.37 -15.09,-4.31 -31.64,-3.28 -47.39,-5.63 -17.27,-2.58 -23.66,-10.71 -20.91,-27.93 4.64,-29.03 10.68,-57.84 15.63,-86.83 1.72,-10.04 1.76,-20.36 2.91,-30.52 1.48,-13.08 4.29,-26.08 4.67,-39.18 0.33,-11.11 -1.06,-22.49 -3.29,-33.43 -4.41,-21.62 10.46,-41.8 33.01,-31.07 5.1,2.43 10.87,3.39 16.2,5.39 33.46,12.56 64.83,11.01 99.02,-3.02 38.69,-15.88 80.64,-23.84 121.29,-34.8 5.2,-1.4 11.1,-0.19 20.59,-0.19 z"
         id="path36" />
      <path
         class="o"
         d="m 7176.28,4383.54 c -1.28,-19.79 -2.43,-35.28 -3.24,-50.78 -2.32,-44.24 -2.97,-88.64 -7.33,-132.68 -2.41,-24.3 4.82,-39.35 26.53,-49 31.56,-14.03 57.8,-35.3 83.92,-57.84 24,-20.72 52.94,-34.55 87.18,-32.38 13.38,0.85 27,-3.03 40.57,-4.21 27.5,-2.38 35.33,5.05 35.26,32.08 -0.11,42.91 -0.76,85.5 5.07,128.6 2.89,21.37 2.82,43.4 8.03,65.2 4.17,17.47 -4.62,25.57 -22.68,25.06 -13.61,-0.38 -27.87,-0.19 -40.61,-4.18 -20.55,-6.44 -37.39,-0.81 -55.35,8.3 -41.6,21.1 -83.79,41.03 -125.95,61 -8.76,4.15 -18.4,6.42 -31.39,10.83 z"
         id="path37" />
      <path
         class="o"
         d="m 6344.74,1994.1 c 2.55,9.3 5.2,18.96 7.99,29.1 38.97,7.55 68.57,30.23 95.58,55.93 13.91,13.23 26.92,23.96 47.26,21.5 15.91,-1.93 28.77,6.22 30.78,20.45 1.21,8.53 -6.8,23.04 -14.75,27.4 -42.5,23.28 -60.05,61.04 -72.79,105.45 -11.15,38.85 -30.23,75.42 -47.05,116.03 -8.92,-5.69 -15.89,-8.83 -21.21,-13.75 -42.46,-39.3 -84.27,-79.31 -127.09,-118.21 -9.94,-9.03 -12.17,-17.86 -9.77,-30.12 10.48,-53.53 19.72,-107.31 31.01,-160.66 7.44,-35.14 40.79,-56.42 80.05,-53.1 z"
         id="path38" />
      <path
         class="o"
         d="m 2245.14,2005.04 c 16.18,-38.46 40.04,-68.2 71.38,-91.13 13.97,-10.22 23.85,-21.5 24.62,-38.48 0.87,-19.01 10.54,-29.06 29.71,-33.72 18.65,9.68 27.85,28.92 35.53,47.03 9.79,23.09 26.48,35.04 47.82,45.55 44.84,22.08 88.61,46.36 132.65,70.04 3.67,1.98 6.08,6.3 10.05,10.58 -6.02,5.14 -11.04,9.51 -16.15,13.76 -45.32,37.65 -91,74.89 -135.76,113.18 -11.52,9.85 -22.61,9.24 -34.85,5.18 -46.31,-15.37 -91.88,-33.46 -138.95,-45.86 -38.69,-10.2 -50.12,-39.72 -61.11,-70.93 -4.45,-12.64 1.42,-22.34 16.12,-23.98 5.62,-0.63 11.29,-0.75 18.94,-1.22 z"
         id="path39" />
      <path
         class="o"
         d="m 4413.22,1469 c -30.66,10.07 -58.93,4.73 -86.77,4.55 -33.95,-0.22 -67.93,-2.51 -101.83,-1.55 -14.47,0.41 -23.31,-2.99 -30.79,-15.27 -28.33,-46.56 -57.13,-92.85 -86.27,-138.9 -10.51,-16.61 -15.58,-32.67 -3.52,-50.6 2.44,-3.63 4.2,-8.13 4.9,-12.45 5.69,-35.06 5.67,-34.35 40.47,-38.35 26.91,-3.09 53.55,-8.46 80.37,-12.45 6.62,-0.98 13.45,-0.65 20.18,-0.73 20.13,-0.25 39.75,1.48 59.87,-6.48 25.63,-10.13 40.46,2.09 34.9,28.64 -9.22,44.06 -5.02,82.76 19.38,123.06 21.85,36.08 32.68,78.84 49.12,120.55 z"
         id="path40" />
      <path
         class="o"
         d="m 1864.1,5648.24 c -28.36,-7.28 -51.54,-11.9 -73.77,-19.33 -22.49,-7.52 -43.64,-19.06 -66.14,-26.55 -20.91,-6.96 -36.15,-18.42 -44.38,-39.08 -23.95,-60.13 -48.05,-120.2 -72.17,-180.26 -4.22,-10.5 -9.33,-20.68 -13.06,-31.34 -3.11,-8.91 -4.8,-18.31 -9.33,-36.29 99.73,39.3 184.18,90.86 278.84,125.4 v 207.45 z"
         id="path41" />
      <path
         class="o"
         d="m 3260.92,1695.99 c -14.03,33.53 -24.88,59.53 -35.79,85.5 -24.65,58.72 -49.62,117.31 -73.76,176.23 -4.95,12.08 -11.37,18.73 -24.96,18.46 -21.65,-0.44 -43.34,-0.55 -64.97,0.26 -26.13,0.98 -52.21,3.46 -78.34,4.48 -12.92,0.51 -25.91,-0.79 -39.6,-1.3 -3.63,-27.9 4.23,-49.42 10.42,-70.86 5.63,-19.52 14.39,-38.14 20.19,-57.62 8.59,-28.86 23.82,-51.07 52.52,-63.35 67.96,-29.09 135.57,-59.01 203.54,-88.07 6.58,-2.81 14.73,-1.93 30.75,-3.73 z"
         id="path42" />
      <path
         class="o"
         d="m 1663.36,3595.5 c -21.88,-21.47 -35.05,-43.47 -44.56,-68.01 -4.06,-10.46 -7.24,-21.88 -13.78,-30.66 -30.44,-40.86 -24.76,-82.3 -5.74,-125.47 25.61,-58.16 49.74,-116.96 74.9,-175.32 3.3,-7.64 8.95,-14.27 17.39,-27.4 8.2,16.84 14.23,27.25 18.51,38.32 29.48,76.23 58.21,152.75 88.23,228.76 5.02,12.71 4.02,21.2 -5.4,30.29 -19.65,18.96 -39.24,38.02 -58.2,57.68 -14.97,15.51 -28.57,32.35 -43.52,47.87 -8.21,8.52 -17.96,15.55 -27.83,23.94 z"
         id="path43" />
      <path
         class="o"
         d="m 6788.05,2980.96 c -9.33,-0.98 -16.9,-0.77 -23.91,-2.65 -82.29,-22.01 -164.38,-44.77 -246.83,-66.19 -15.73,-4.09 -21.96,-11.13 -24.32,-27.16 -7.09,-48.19 -15.89,-96.13 -24.54,-144.07 -5.3,-29.36 5.01,-40.42 35.35,-35.3 36.77,6.2 73.46,12.93 110.05,20.07 20.69,4.04 37.82,13.07 49.31,32.73 34.27,58.67 69.66,116.67 104.68,174.9 8.39,13.95 22.8,25.35 20.21,47.67 z"
         id="path44" />
      <path
         class="o"
         d="m 5128.16,1630.61 c -9.45,7.56 -14.78,13.17 -21.23,16.76 -76.28,42.54 -152.82,84.65 -229.06,127.27 -10.84,6.06 -19.35,3.65 -28.07,-3.14 -13.45,-10.47 -26.71,-21.2 -40.43,-31.3 -24.66,-18.15 -49.71,-35.76 -74.36,-53.9 -9.79,-7.21 -18.96,-15.25 -27.55,-22.2 4.86,-26.43 26.07,-34.68 41.38,-46.55 22.22,-17.23 48.41,-29.22 71.48,-45.47 19.32,-13.61 39.32,-16.75 61.4,-11.75 34.28,7.76 68.64,15.2 102.67,23.94 39.4,10.11 78.57,21.16 117.62,32.53 8,2.33 15.06,7.84 26.13,13.82 z"
         id="path45" />
      <path
         class="o"
         d="m 7040.15,5100.84 c -52.82,-88.7 -102.45,-172.05 -154.73,-259.85 35.32,-51.14 72.86,-105.5 110.87,-160.54 25.83,12.14 40.28,30.89 54.1,50.04 8.54,11.83 13.96,26.43 24.06,36.5 35.01,34.91 36.02,76.13 25.72,120.17 -8.51,36.41 -17.08,72.81 -25.9,109.15 -6.94,28.61 -14.13,57.16 -21.65,85.62 -1.06,3.99 -4.68,7.31 -12.46,18.91 z"
         id="path46" />
      <path
         class="o"
         d="m 1513.42,4995.03 c 29.49,17.84 59.5,35.75 89.26,54.06 46.37,28.52 92.57,57.3 138.84,85.97 9.58,5.93 13.93,13.59 12.21,25.64 -7.57,52.87 -14.15,105.87 -21.65,158.75 -3.3,23.28 -9.61,27.7 -31.89,16.98 -32.59,-15.69 -63.75,-34.37 -95.38,-52.04 -3.88,-2.17 -6.35,-7.54 -10.3,-8.8 -39.68,-12.64 -42.82,-49.04 -52.99,-80.78 -3.45,-10.76 -5.64,-21.91 -8.75,-32.79 -11.52,-40.37 -23.78,-80.55 -34.55,-121.12 -6.27,-23.6 -5.11,-24.28 15.2,-45.86 z"
         id="path47" />
      <path
         class="o"
         d="m 3575.35,1613.97 c -28.46,49.02 -58.14,100.1 -87.76,151.22 -13.68,23.61 -28.34,46.76 -40.36,71.2 -6.52,13.25 -13.8,19.35 -28.68,17.89 -52.04,-5.08 -104.17,-9.29 -156.22,-14.3 -22.07,-2.13 -29.18,-11.67 -19.99,-32.1 15.31,-33.99 33.52,-66.67 50.68,-99.82 1.54,-2.97 5.24,-4.96 6.33,-7.99 14.53,-40.33 50.51,-47.96 85.76,-58.03 38.24,-10.92 75.86,-24.05 113.82,-35.99 14.05,-4.42 28.09,-9.42 42.52,-11.92 13.99,-2.42 27.78,-0.61 33.89,19.84 z"
         id="path48" />
      <path
         class="o"
         d="m 2023.51,5907.5 c -53.42,7.2 -103.09,0.68 -151.25,-12.82 -14.2,-3.98 -27.49,-19.9 -36.06,-33.58 -22.31,-35.63 -41.67,-73.1 -62.41,-109.72 -11.76,-20.77 -24.1,-41.21 -35.85,-61.98 -8.41,-14.85 -14.78,-30.35 -12.26,-49.43 19.05,-6.82 35.7,-1.9 52.84,4.96 26.31,10.53 53.15,19.74 79.81,29.38 4.27,1.55 9.71,1.22 13.06,3.78 35.62,27.34 80.49,29.9 120.51,45.38 24.5,9.47 24.1,9.01 25.94,37.97 2.3,36.25 6.15,72.41 8.33,108.66 0.73,12.14 -1.65,24.46 -2.66,37.39 z"
         id="path49" />
      <path
         class="o"
         d="m 6915.98,3286.74 c -73.05,-30.95 -143.71,-62.26 -215.48,-90.79 -46.16,-18.35 -46.44,-16.52 -47.69,-66.05 -1.06,-42.1 -3.28,-84.17 -5.06,-126.25 -0.91,-21.39 5.43,-27.81 25.63,-22.67 49.41,12.57 98.46,28.16 142.54,53.05 18.55,10.47 30.15,36.05 40.96,56.82 19.32,37.13 35.71,75.78 53.16,113.87 6.16,13.44 11.76,27.13 17.8,40.62 7.12,15.89 2.43,28.52 -11.87,41.4 z"
         id="path50" />
      <path
         class="o"
         d="m 1863.09,2888.54 c 17.84,74.92 31.64,149.96 54.52,222.13 12.36,38.98 10.02,60.8 -26.13,83.15 -34.5,21.32 -63.73,51.17 -95.27,77.27 -18.91,15.66 -30.65,14.16 -38.15,-8.58 -11.99,-36.4 -21.15,-73.73 -31.39,-110.7 -0.9,-3.26 0.05,-7.45 -1.65,-10.01 -19.79,-29.75 -1.14,-55.81 10.63,-80 24.35,-50.02 52.69,-98.09 79.51,-146.9 9.42,-17.15 18.44,-35.35 47.93,-26.36 z"
         id="path51" />
      <path
         class="o"
         d="m 5027.16,1720.15 c 3.51,-2.14 9.06,-6.31 15.23,-9.14 35.86,-16.43 72.84,-30.71 107.56,-49.25 41.7,-22.28 77.46,-8.49 115.46,9.58 29.52,14.04 61.66,22.5 92.44,33.96 18.1,6.73 36.79,12.81 53.3,22.46 8.52,4.98 16.1,16.57 17.68,26.23 0.75,4.58 -12.67,13.83 -21.17,17.21 -62.2,24.77 -127.06,44.11 -186.47,74.26 -40.84,20.72 -66.18,17.48 -94.26,-16.88 -29.27,-35.83 -62.58,-68.36 -99.78,-108.42 z"
         id="path52" />
      <path
         class="o"
         d="m 6945.57,5002.54 c 3.16,2.73 7.77,4.94 9.6,8.57 24,47.41 51.15,93.7 69.52,143.23 7.1,19.15 -3.5,46.52 -10.3,68.84 -12.55,41.21 -28.14,81.51 -42.71,122.1 -4.99,13.89 -10.2,27.75 -16.28,41.19 -6.51,14.39 -17.58,20.25 -36.73,13.35 -23.88,-56.45 -48.35,-115.08 -73.54,-173.4 -8.53,-19.76 -17.27,-39.78 -28.9,-57.74 -8.5,-13.12 -8.16,-23.36 1.24,-33.72 38.97,-42.99 78.29,-85.66 117.71,-128.25 2.03,-2.19 6.09,-2.51 10.39,-4.16 z"
         id="path53" />
      <path
         class="o"
         d="m 3546.53,1721 c 22,-34.47 44.02,-63.66 60.31,-95.76 22.95,-45.24 58.68,-66.21 107.57,-70.09 53.32,-4.23 105.58,-13.45 156.02,-32.63 10.35,-3.94 23.96,0.69 42.15,1.71 -5.88,15.69 -7.95,28.13 -14.48,37.46 -31.79,45.45 -64.86,89.99 -97.27,135 -12.58,17.48 -24.92,35.15 -36.81,53.11 -8.84,13.36 -18.2,21.8 -36.45,17.22 -49.59,-12.43 -99.59,-23.23 -149.33,-35.06 -9.36,-2.23 -18.29,-6.25 -31.73,-10.95 z"
         id="path54" />
      <path
         class="o"
         d="m 2043.9,2596.69 c 4.46,7.72 10.32,13.81 11.61,20.76 7.89,42.29 15.22,84.7 21.81,127.21 5.72,36.86 8.82,74.19 15.86,110.77 3.64,18.91 -1.15,30.35 -16.71,39.91 -40.62,24.96 -80.78,50.66 -121.45,75.54 -10.26,6.28 -21.73,10.58 -35.56,17.18 -4.58,-15.01 -9,-26.29 -11.42,-37.99 -7.63,-36.74 -14.61,-73.61 -21.63,-110.48 -3.06,-16.07 -2.21,-30.82 8.59,-45.16 22.54,-29.92 43.8,-60.81 65.02,-91.7 14.76,-21.49 30.98,-42.49 42.06,-65.84 9.07,-19.12 22.36,-30.06 41.82,-40.22 z"
         id="path55" />
      <path
         class="o"
         d="m 1624.24,5030.49 c -48.9,-34.35 -93.64,-63.38 -135.45,-96.17 -20.39,-15.99 -21.12,-44.38 -24.89,-68.67 -3.83,-24.62 -2.63,-50.02 -6.33,-74.67 -3.85,-25.64 -11.62,-50.66 -16.32,-76.21 -2.92,-15.89 -3.31,-32.25 -4.72,-47.18 20.64,-10.69 33.98,-2.25 45.15,6.5 47.18,36.96 93.36,75.2 140.28,112.49 11.46,9.11 24.24,16.57 36.6,24.5 13.43,8.62 21.79,18.3 16.92,36.42 -13.23,49.26 -24.95,98.92 -37.74,148.3 -2.46,9.48 -7.07,18.4 -13.5,34.7 z"
         id="path56" />
      <path
         class="o"
         d="m 1590.59,3896.68 c -36.36,-36.11 -71.49,-71.42 -95.53,-115.68 -5.34,-9.83 -6.27,-24.62 -3.62,-35.8 16.97,-71.69 35.02,-143.14 54,-214.33 3.24,-12.14 12.67,-22.62 19.81,-34.85 21.87,11.5 31.15,27.2 38.76,45.7 9.86,23.99 22.35,46.9 33.9,70.18 2.52,5.07 7.97,9.52 8.48,14.61 4.18,41.85 33.1,71.5 51.39,106.35 3.69,7.03 8.76,13.99 9.94,21.49 1.09,6.96 0.3,16.72 -3.9,21.6 -30.34,35.25 -61.63,69.68 -92.95,104.08 -5.14,5.64 -11.87,9.83 -20.28,16.64 z"
         id="path57" />
      <path
         class="o"
         d="m 4791.49,1559.75 c -16.8,12.9 -33.27,26.25 -50.5,38.53 -12.9,9.19 -27.49,16.09 -40.08,25.65 -18.02,13.67 -35.84,25.91 -57.14,35.51 -25.2,11.35 -45.68,33.3 -67.97,50.94 -27.53,21.79 -29.26,22.18 -59.12,2.5 -32.29,-21.27 -64.36,-42.86 -96.41,-64.5 -7.41,-5.01 -14.32,-10.77 -22.48,-16.97 30.26,-42.05 58.59,-78.67 94.57,-108.64 11.48,-9.56 23.73,-14.83 40.6,-12.54 58.51,7.95 117.33,13.58 176.02,20.25 18.01,2.05 36.15,3.72 53.88,7.29 9.3,1.87 17.84,7.49 26.72,11.42 0.64,3.51 1.28,7.02 1.92,10.53 z"
         id="path58" />
      <path
         class="o"
         d="m 2683.5,2144.34 c -5.12,-53.14 -3.85,-103.12 10.9,-151.29 4.08,-13.32 18.69,-25.37 31.3,-33.74 34.1,-22.65 69.71,-43.04 104.76,-64.29 21.4,-12.97 42.78,-26 64.31,-38.75 14.51,-8.59 28.81,-18.58 48.61,-12.76 4.83,18.35 1.91,35.31 -5.19,52.76 -8.53,20.95 -14.56,42.9 -22.35,64.16 -6.19,16.88 -14.48,33.04 -19.93,50.13 -8.6,27 -15.66,54.49 -23.22,81.81 -2.43,8.78 -2.65,18.74 -7.13,26.21 -4.11,6.85 -12.16,15.02 -19.23,15.8 -46.25,5.14 -92.69,8.57 -139.1,12.15 -6.59,0.51 -13.34,-1.16 -23.72,-2.19 z"
         id="path59" />
      <path
         class="o"
         d="m 5338.98,1832.56 c 9.56,-5.36 15,-9.58 21.15,-11.68 41.99,-14.31 84.28,-27.77 126.15,-42.42 12.63,-4.42 23.5,-5.36 35.69,1.42 25.75,14.32 52.98,26.13 78.01,41.56 32,19.72 65.88,34.66 100.61,48.53 13.98,5.58 25.95,16.18 44.79,28.35 -13.86,10.02 -21.38,18.64 -30.71,21.67 -59.1,19.23 -117.65,40.4 -179.34,50.86 -16.58,2.81 -32.55,10 -48.37,16.28 -13.17,5.23 -24.37,4.82 -33.7,-6.69 -33.58,-41.48 -67.21,-82.92 -100.53,-124.61 -4.74,-5.93 -7.86,-13.16 -13.76,-23.26 z"
         id="path60" />
      <path
         class="o"
         d="m 6600.35,2697.66 c -16.9,-1.51 -33.55,-2.14 -49.92,-4.68 -18.96,-2.94 -37.58,-8.01 -56.49,-11.36 -53.24,-9.43 -105.5,-23.76 -159.9,-27.54 -31.7,-2.2 -31.13,-4.96 -37.65,-37.41 -7.59,-37.8 -16.17,-75.4 -23.81,-113.18 -1.74,-8.6 -1.42,-17.62 -2.17,-28.14 50.65,-13.09 100.11,-16.69 149.88,-11.47 11.07,1.16 23.98,8.96 31.3,17.69 46.01,54.8 91.07,110.41 135.48,166.52 9.35,11.81 21.9,24.28 13.27,49.58 z"
         id="path61" />
      <path
         class="o"
         d="m 7021.14,4373.77 c 45.03,28.97 83.58,62.15 117.08,100.97 5.25,6.08 7.86,16.92 7.2,25.21 -3.93,49.82 -9.37,99.51 -13.88,149.29 -1.84,20.3 -1.64,40.83 -4.26,61 -2.12,16.36 -7.06,32.36 -10.97,49.5 -25.16,-2.02 -34.83,-17.97 -45.42,-32.19 -16.91,-22.71 -33.32,-45.79 -49.97,-68.7 -3.35,-4.61 -8.33,-8.66 -9.95,-13.79 -11.8,-37.33 -41.07,-61.99 -64.85,-90.59 -23.98,-28.84 -24.44,-31.22 -3.64,-64.76 19.79,-31.91 39.72,-63.73 60.13,-95.24 4.72,-7.28 11.66,-13.13 18.54,-20.7 z"
         id="path62" />
      <path
         class="o"
         d="m 7045.63,3604.11 c -18.99,-4.16 -32.98,-4.35 -44.05,-10.14 -51.04,-26.71 -103.36,-51.08 -151.48,-83.28 -14.94,-10 -32.73,-15.85 -49.45,-23.04 -12.96,-5.58 -20.2,-14.09 -18.81,-28.9 5.41,-57.75 10.61,-115.52 16.14,-173.26 0.29,-3.04 2.96,-5.84 6.14,-11.77 10.21,3.44 20.88,6 30.66,10.51 37.24,17.19 74.32,34.74 111.21,52.67 28.01,13.62 33.22,43.12 40.28,68 14.59,51.41 27.12,103.05 52.01,151.02 6.17,11.89 4.53,27.84 7.35,48.2 z"
         id="path63" />
      <path
         class="o"
         d="m 6790.11,5718.93 c -7.61,-12.48 -16.88,-22.82 -20.75,-34.89 -17.65,-55.04 -33.34,-110.7 -50.73,-165.82 -5.45,-17.28 -13.65,-33.75 -21.23,-50.29 -6.81,-14.85 -2.88,-25.66 9.28,-35.92 35.52,-29.95 70.34,-60.72 105.72,-90.83 10.17,-8.65 21.34,-16.13 30.94,-23.32 4.83,2.54 7.98,3.1 8.61,4.68 19.43,48.54 39.11,97 57.31,146.01 2.76,7.42 0.27,18.2 -2.93,26.16 -9.73,24.23 -20.89,47.88 -31.69,71.67 -16.87,37.17 -35.81,73.55 -50,111.7 -6.61,17.78 -17.24,28.16 -34.53,40.85 z"
         id="path64" />
      <path
         class="o"
         d="m 1644.98,4535.84 c -23.58,53.09 -47.39,106.69 -73.06,164.48 -13.75,-8.26 -25.08,-14.7 -36.03,-21.72 -31.36,-20.12 -52.63,-53.02 -87.79,-68.62 -10.95,-4.86 -15.95,-15.29 -15.46,-28.16 0.66,-17.06 1.7,-34.3 0.07,-51.22 -2.97,-30.9 -8.33,-61.57 -11.64,-92.45 -2.64,-24.56 -1.08,-48.94 9.67,-77.78 38.74,30.08 75.35,57.35 110.65,86.23 34.1,27.91 66.86,57.47 103.6,89.23 z"
         id="path65" />
      <path
         class="o"
         d="m 2449.94,2182.63 c 3.06,8.07 8.22,15.3 8.14,22.48 -0.61,55.22 -2.67,110.43 -3.29,165.65 -0.19,16.9 1.98,33.92 4.29,50.72 3.77,27.34 -0.74,36.12 -25.92,42.7 -39.65,10.36 -79.38,20.43 -119.25,29.88 -23.29,5.51 -27.67,1.45 -30.57,-22.04 -1.37,-11.1 -5.6,-21.88 -6.66,-32.98 -2.89,-30.17 -6.55,-60.44 -6.51,-90.67 0.03,-24.18 21.6,-36.45 37.13,-50.97 27.36,-25.58 55.64,-50.18 83.79,-74.89 14.51,-12.74 29.35,-25.12 44.56,-37 3.07,-2.4 8.48,-1.81 14.3,-2.86 z"
         id="path66" />
      <path
         class="o"
         d="m 6709.76,5611.31 c 17.41,34.94 25.56,68.98 35.45,102.39 2.86,9.67 4.68,20.18 9.84,28.53 14.13,22.82 9.03,41.3 -5.83,62.31 -22.13,31.28 -44.73,63.37 -59.53,98.33 -11.24,26.57 -33.14,40.61 -44.97,63.22 -6.36,-3.15 -9.49,-3.63 -10.18,-5.2 -9.45,-21.4 -21.03,-42.26 -27.29,-64.59 -16.16,-57.73 -22.97,-118.06 -48.95,-173.07 -1.85,-3.92 -1.69,-8.8 -3.22,-17.54 50.04,-30.53 100.86,-61.54 154.67,-94.37 z"
         id="path67" />
      <path
         class="o"
         d="m 5719.64,2137.87 c -28.62,-50.7 -57.99,-102.71 -88.48,-156.71 32.9,-15.77 64.92,-23.08 96.77,-30.92 12.98,-3.2 26.64,-5.08 38.6,-10.6 22.35,-10.31 40.27,-6.65 59.6,8.38 28.36,22.05 56.74,46.45 89.21,60.03 22.31,9.33 36.41,25.4 54.33,38.11 5.58,3.96 8.29,11.97 13.81,20.44 -49.4,18.5 -95.53,34.69 -144.55,43.1 -37.79,6.49 -74.81,17.47 -119.3,28.17 z"
         id="path68" />
      <path
         class="o"
         d="m 2237.41,2374.82 c 16.91,65.01 27.68,125.67 25.09,188.59 -0.81,19.75 7.48,39.97 12.29,59.81 3.45,14.21 0.04,25.35 -13.61,30.95 -48.32,19.82 -96.88,39.06 -145.42,58.32 -1.77,0.7 -4.34,-0.61 -9.94,-1.57 -8.5,-31.23 -15.37,-64 -17.26,-97.94 -0.75,-13.47 -0.93,-27.75 -5.61,-40.04 -7.71,-20.23 -1.83,-34.45 12.06,-48.96 27.23,-28.45 56.69,-55.63 78.79,-87.76 12.33,-17.93 26.29,-32.72 41.48,-47.15 5.41,-5.14 12.71,-8.31 22.12,-14.25 z"
         id="path69" />
      <path
         class="o"
         d="m 6462,6052 c -0.22,-9.04 -1.86,-20.91 -9.6,-25.15 -7.58,-4.15 -15.44,1.91 -22.08,-2.45 -3.96,-2.61 -6.37,-9.47 -5.52,-26.41 0.93,-18.49 -6.98,-37.89 -13.07,-56.14 -5.78,-17.31 -2,-29.06 14.43,-36.29 44.67,-19.65 89.46,-39.03 140.92,-61.45 11.97,33.97 22.66,63.47 32.64,93.21 2.88,8.57 3.42,15.09 4.28,23.35 4.08,39.49 -9.97,71.87 -21,91.32 h -121 z"
         id="path70" />
      <path
         class="o"
         d="m 6910.17,3585.33 c 32.48,9.03 59.06,26.17 86.33,41.93 12.61,7.29 25.2,15.3 38.84,19.97 23.95,8.22 34.04,24.69 35.08,48.7 1.87,43.2 15.64,83.1 30.55,123.37 7.36,19.88 3.47,43.94 4.9,70.51 -26.75,-10.58 -50.56,-17.03 -71.3,-28.87 -32.37,-18.48 -62.24,-41.31 -94.03,-60.89 -15.28,-9.41 -32.45,-15.79 -48.89,-23.26 -28.58,-12.99 -29.98,-16.57 -22.11,-46.75 10.6,-40.6 20.29,-81.45 30.82,-122.07 1.89,-7.3 6,-14.03 9.8,-22.64 z"
         id="path71" />
      <path
         class="o"
         d="m 1548.61,4413.57 c -41.5,-24.15 -77.92,-52.46 -109.73,-86.21 -14.81,-15.71 -15.82,-36.02 -14.1,-57.61 4.39,-55.19 6.22,-110.58 9.72,-165.86 0.53,-8.38 4.49,-16.54 6.74,-24.4 20.1,0.87 29.9,12.23 37.49,24.96 15.58,26.14 35.95,46.49 63.57,59.79 6.95,3.35 14.51,8.39 18.35,14.73 16.83,27.77 40.78,48.54 65.01,69.11 11.73,9.96 17.89,21.65 9.37,35.81 -24.61,40.93 -49.96,81.42 -75.27,121.93 -1.64,2.62 -5.44,3.88 -11.16,7.74 z"
         id="path72" />
      <path
         class="o"
         d="m 7136.29,4180.62 c -19.03,-15.33 -32.11,-25.72 -45.03,-36.32 -9.62,-7.89 -17.78,-19.91 -28.73,-23.42 -53.66,-17.19 -87.13,-64.91 -136.56,-87.93 -14.23,-6.63 -17.85,-17.56 -12.56,-30.86 16.82,-42.31 34.31,-84.36 51.8,-126.4 6.03,-14.5 15.86,-17.97 29.99,-9.68 27.16,15.92 53.64,33.49 82.21,46.36 37.24,16.78 46.08,46.72 47.97,83.03 1.77,33.88 5.31,67.7 8.94,101.45 1.94,17.99 6.5,35.7 8.28,53.69 0.71,7.16 -2.9,14.74 -6.32,30.08 z"
         id="path73" />
      <path
         class="o"
         d="m 6204.93,2244.71 c -6.8,6.28 -8.95,10.04 -11.7,10.54 -45.52,8.32 -91.01,16.83 -136.71,24.03 -32.42,5.11 -65.25,7.64 -97.67,12.76 -13.64,2.15 -25.35,3.26 -31.41,-11.65 -18.41,-45.33 -36.55,-90.76 -54.46,-136.29 -1.08,-2.74 0.74,-6.62 1.43,-11.52 42,-18.75 86.89,-29.23 132.23,-37.96 17.9,-3.45 33.83,2.65 47.4,14.38 42.14,36.43 84.25,72.9 126.08,109.68 8.3,7.29 15.35,16.02 24.81,26.03 z"
         id="path74" />
      <path
         class="o"
         d="m 4202.59,1511.78 c -9.45,12.32 -18.12,25.35 -28.52,36.81 -23.42,25.78 -50.5,48.65 -61.65,83.54 -1.31,4.11 -4.98,7.5 -7.73,11.1 -14.31,18.76 -30.15,36.55 -42.66,56.43 -17.99,28.58 -18.99,29.81 -51.15,15.75 -19.79,-8.65 -39.61,-17.24 -59.54,-25.59 -24.92,-10.43 -49.95,-20.58 -79,-32.52 6.78,-11.56 11.58,-21.29 17.77,-30.02 23.53,-33.2 47.9,-65.8 71.11,-99.22 7.95,-11.45 17.09,-17.42 31.07,-16.73 12.5,0.61 25.14,1.31 37.54,0.12 32.03,-3.09 63.88,-8.36 95.96,-10.52 24.15,-1.62 48.53,0.22 72.81,0.53 1.32,3.44 2.64,6.88 3.97,10.33 z"
         id="path75" />
      <path
         class="o"
         d="m 1893,6054.67 c -6.86,-10.4 22.67,-56.22 -6.86,-120.36 56.38,-6.65 104.34,-5.16 150.8,4.36 30.63,6.28 60.71,4.38 90.99,6.16 30.9,1.82 42.44,92.47 45.06,121.84"
         id="path76" />
      <path
         class="o"
         d="m 1556.55,4157.08 c -13.19,-14.45 -23.09,-25.12 -32.81,-35.97 -19.56,-21.84 -37.48,-45.47 -59,-65.17 -19.01,-17.4 -25.74,-36.83 -21.89,-60.8 8.09,-50.36 16.53,-100.67 25.66,-150.84 1.26,-6.92 7.3,-12.98 11.22,-19.59 23.21,4.44 34.04,21.81 46.31,35.72 26.25,29.76 49.96,61.76 76.05,91.68 14.81,16.98 32.23,31.68 48.53,47.36 11.31,10.88 11.52,22.62 -0.17,32.34 -34.19,28.41 -52,68.22 -74.86,104.58 -3.98,6.32 -10.21,11.23 -19.04,20.69 z"
         id="path77" />
      <path
         class="o"
         d="m 6399.21,2428.43 c -17.33,4.72 -26.77,8.82 -36.49,9.69 -47.49,4.21 -95.09,7.12 -142.57,11.39 -20.21,1.82 -40.19,6.01 -60.32,8.81 -30.25,4.21 -37.26,-1.56 -44.2,-31.12 -8,-34.03 -17.31,-67.75 -26.39,-101.51 -4.92,-18.28 -1.47,-25.66 16.5,-29.12 35.69,-6.86 71.48,-13.3 107.32,-19.37 27.66,-4.68 50.87,2.7 70.72,23.98 29.44,31.55 60.89,61.2 90.78,92.33 8.18,8.52 13.88,19.43 24.66,34.91 z"
         id="path78" />
      <path
         class="o"
         d="m 2660,2022.69 c 0,31.9 1.03,65.82 -0.25,99.65 -1.72,45.41 -5.3,90.74 -7.93,136.11 -1.48,25.43 -5.29,29.49 -29.18,32.46 -37.09,4.6 -74.12,9.76 -111.2,14.45 -18.29,2.31 -24.64,-2.73 -25.71,-22.17 -2.01,-36.37 -2.94,-72.79 -4.73,-109.18 -1.41,-28.78 10.16,-49.84 33.8,-66.48 36.27,-25.52 71.68,-52.31 106.66,-79.59 10.98,-8.56 21.01,-12.99 38.54,-5.26 z"
         id="path79" />
      <path
         class="o"
         d="m 4462.02,1512.9 c -26.98,33.12 -49.42,61.44 -72.71,89.05 -26.34,31.22 -53.8,61.5 -80.07,92.78 -16,19.05 -25.48,23.13 -41.79,7.53 -29.11,-27.84 -66.57,-38.38 -101.5,-54.15 -25.49,-11.51 -28.82,-20.43 -10.64,-42.58 25.8,-31.43 51.31,-63.2 79.09,-92.82 8.28,-8.83 23.7,-15.29 35.89,-15.38 54.6,-0.38 109.24,1.62 163.83,3.64 6.95,0.26 13.7,5.66 27.9,11.93 z"
         id="path80" />
      <path
         class="o"
         d="m 7008.91,4113.73 c 12.87,8.25 22.72,13.65 31.54,20.39 30.5,23.33 60.46,47.35 90.97,70.65 19.09,14.58 18.4,35.87 18.85,55.93 0.99,44.36 0.78,88.77 -0.14,133.14 -0.23,11.43 -4.88,22.77 -8.86,40.08 -36.98,-27.57 -70.71,-48.87 -99.67,-75.37 -30.31,-27.73 -61.63,-53.61 -95.15,-77.17 -16.3,-11.46 -18.95,-19.62 -5.56,-33.04 28.02,-28.11 35.24,-65.71 50.64,-99.61 4.95,-10.91 10.65,-21.49 17.39,-35 z"
         id="path81" />
      <path
         class="o"
         d="m 1719.93,4869.06 c 21.73,87.78 42.82,172.98 64.82,261.86 -6.99,-2.18 -12.13,-2.87 -16.33,-5.24 -24.77,-13.95 -48.82,-29.27 -74.1,-42.19 -20.76,-10.6 -30.19,-25.5 -29.61,-48.9 0.54,-21.77 2.22,-42.46 10.64,-63.27 8.89,-21.99 12.79,-45.95 19.7,-68.8 4.03,-13.33 3.62,-30.55 24.89,-33.46 z"
         id="path82" />
      <path
         class="o"
         d="m 1797.39,5177.3 c 31.95,82.22 63.91,164.43 98.02,252.2 -43.31,-18.03 -82.68,-33.44 -120.9,-51.3 -6.45,-3.01 -11.86,-16.97 -11.1,-25.26 4.02,-43.94 9.72,-87.75 15.81,-131.46 2.06,-14.82 6.97,-29.25 10.58,-43.85 2.53,-0.11 5.06,-0.22 7.59,-0.33 z"
         id="path83" />
      <path
         class="o"
         d="m 1914.3,5471.88 c 40.56,77.85 81.11,155.69 124.25,238.49 -31.7,-4.99 -57.47,-15.53 -83.7,-24.11 -8.59,-2.81 -16.9,-6.61 -25.64,-8.76 -28.75,-7.1 -32.02,-9.97 -32.17,-38.58 -0.24,-43.33 -0.05,-86.68 1.14,-129.99 0.35,-12.61 4.75,-25.11 7.29,-37.67 2.94,0.21 5.89,0.42 8.83,0.63 z"
         id="path84" />
      <path
         class="o"
         d="m 1815.69,3504.92 c -25.01,86.26 -49.18,169.66 -75.14,259.22 -14.65,-26.22 -26.99,-48.1 -39.13,-70.11 -6.55,-11.87 -11.59,-24.75 -19.37,-35.72 -8.65,-12.19 -9.86,-24.02 0.12,-34.12 39.15,-39.6 78.99,-78.52 119.03,-117.22 2.76,-2.67 9.29,-1.43 14.48,-2.06 z"
         id="path85" />
      <path
         class="o"
         d="m 2089.73,2935.43 c -44.19,79.1 -85.88,153.72 -130.49,233.56 -11.67,-37.37 -22.61,-67.87 -30.56,-99.12 -7.81,-30.7 5.28,-55.43 39.42,-75.4 34.28,-20.05 69.7,-38.18 104.82,-56.77 3.59,-1.9 8.52,-1.24 16.81,-2.26 z"
         id="path86" />
      <path
         class="o"
         d="m 1935.52,3214.66 c -33.69,78.32 -67.41,156.7 -103.72,241.13 -17.58,-40.63 -33.95,-76.49 -48.18,-113.19 -2.48,-6.39 1.48,-19.12 6.89,-24.11 43.45,-39.96 87.51,-79.37 141.29,-105.57 0.58,-0.28 1.85,0.83 3.72,1.74 z"
         id="path87" />
      <path
         class="o"
         d="m 1678.22,4568.56 c 11.58,86.29 22.66,168.92 34.2,254.91 -6.47,-3.98 -11.61,-5.8 -14.87,-9.35 -21.68,-23.67 -46.03,-43.85 -74.87,-58.17 -17.1,-8.49 -21.4,-20.98 -16.77,-39.32 12.61,-49.99 34.89,-95.72 59.58,-140.47 1.35,-2.44 5.43,-3.37 12.72,-7.6 z"
         id="path88" />
      <path
         class="o"
         d="m 6636.37,3199.13 c 32.92,11.11 61.73,20.6 90.36,30.57 20.8,7.24 35.02,20.39 36.94,43.85 0.55,6.74 3.25,13.58 2.52,20.11 -5.23,46.98 -11.09,93.89 -17.53,147.37 -9.47,-10.21 -16.38,-14.64 -18.92,-20.86 -27.99,-68.51 -50.8,-139.22 -88.07,-203.74 -2.17,-3.76 -2.67,-8.49 -5.29,-17.3 z"
         id="path89" />
      <path
         class="o"
         d="m 6448.32,2874.14 c -50.19,-65.65 -100.39,-131.31 -153.65,-200.97 23.74,2.46 44.6,4.15 65.31,6.93 16.77,2.25 33.61,4.91 49.93,9.22 7.9,2.08 19.68,7.06 21.23,12.95 14.59,55.5 25.11,111.74 24.33,169.17 -2.38,0.9 -4.77,1.8 -7.15,2.7 z"
         id="path90" />
      <path
         class="o"
         d="m 6611.76,3152.09 c -42.86,-75.58 -83.02,-146.38 -126.73,-223.46 40.94,9.05 75.05,16.45 109.08,24.17 12.39,2.81 19,11.1 21.65,23.58 7.37,34.78 6.26,123.99 -4,175.71 z"
         id="path91" />
      <path
         class="o"
         d="m 3103.44,2018.28 c -71.3,40.81 -142.61,81.63 -219.67,125.74 7.26,-27.91 12.69,-49.66 18.67,-71.26 2.12,-7.64 6.31,-14.72 8.33,-22.38 10.11,-38.22 10.06,-38.46 50.45,-38.6 47.22,-0.15 94.45,-0.04 141.67,-0.04 0.18,2.18 0.35,4.36 0.53,6.53 z"
         id="path92" />
      <path
         class="o"
         d="m 6873.34,4792.91 c 9.24,-88.32 17.73,-169.54 26.94,-257.53 18.26,21.63 32.7,38.43 46.78,55.51 7.88,9.56 14.47,20.28 22.96,29.24 10.14,10.7 12.08,22.46 5,34.22 -28.53,47.37 -58.98,93.42 -101.67,138.56 z"
         id="path93" />
      <path
         class="o"
         d="m 3456.98,1869.9 c 17.27,-33.79 31,-61.12 45.18,-88.22 8.13,-15.55 21.52,-24.07 39.01,-22.35 20.09,1.99 40.17,5.14 59.89,9.45 21.04,4.6 41.64,11.22 62.48,16.8 11.73,3.14 23.54,5.96 35.31,8.93 0.2,2.61 0.39,5.22 0.59,7.83 -39.44,10.27 -79.03,20.02 -118.29,30.94 -39.66,11.04 -79,23.24 -124.17,36.61 z"
         id="path94" />
      <path
         class="o"
         d="m 6834.45,3722.52 c -13.08,-17.24 -66.05,-184.61 -72.52,-226.16 30.75,14.78 62.08,29.88 93.45,44.89 11.29,5.4 17.69,13.21 16.5,26.71 -4.67,53.08 -17.18,104.1 -37.42,154.57 z"
         id="path95" />
      <path
         class="o"
         d="m 3395.97,1891.33 c -78.13,31.91 -151.5,61.88 -230.94,94.32 14.09,-37.6 25.66,-69.22 37.85,-100.61 4.54,-11.68 13.71,-18.52 26.69,-16.98 53.76,6.37 108.77,4.12 166.39,23.26 z"
         id="path96" />
      <path
         class="o"
         d="m 5406.35,1984.81 c -74.7,-30.84 -149.4,-61.68 -227.2,-93.8 29.34,-14.39 55.28,-28.17 82.12,-39.88 16.15,-7.05 33.42,-7.89 47.37,6.51 14.06,14.51 28.54,28.72 41.42,44.23 14.47,17.43 27.34,36.18 40.93,54.34 6.58,8.79 13.22,17.52 19.84,26.28 -1.49,0.77 -2.99,1.54 -4.48,2.31 z"
         id="path97" />
      <path
         class="o"
         d="m 2102.2,2765.21 c 51.45,-37.83 104.7,-56.76 163.56,-69.1 -45.84,61.58 -91.69,123.16 -141.28,189.79 -8.25,-44.71 -15.27,-82.73 -22.28,-120.69 z"
         id="path98" />
      <path
         class="o"
         d="m 6806.65,5088.4 c 18.74,-81.21 35.86,-155.42 53.54,-232.03 4.68,4.02 10.32,7.19 13.61,11.97 14.79,21.5 29.09,43.34 43.21,65.29 7.64,11.87 13.38,24.43 2.93,37.76 -32.02,40.84 -63.65,82.08 -113.28,117 z"
         id="path99" />
      <path
         class="o"
         d="m 6784.55,5159.59 c 16.03,29.45 28.56,52.31 40.95,75.24 10.95,20.27 9.89,39.76 -6.06,56.78 -12.31,13.14 -25.48,25.58 -39.09,37.38 -14.57,12.63 -30.1,24.17 -45.22,36.17 -9.33,7.41 -18.69,14.79 -33.22,18.16 26.91,-72.85 53.82,-145.69 82.64,-223.72 z"
         id="path100" />
      <path
         class="o"
         d="m 1693.09,4053.29 c -6.22,67.06 -12.44,134.12 -19.25,207.59 -31.98,-29.27 -59.13,-54.12 -87.17,-79.77 28.88,-48.42 54.03,-97.34 98.14,-131.62 2.76,1.27 5.52,2.53 8.28,3.8 z"
         id="path101" />
      <path
         class="o"
         d="m 2182.03,5925.56 c -37.57,0 -69.37,-0.17 -101.16,0.07 -17.38,0.13 -24.52,-8.2 -24,-25.3 0.62,-20.5 0.66,-41.05 0.03,-61.55 -0.63,-20.42 -2.8,-40.78 -3.53,-61.2 -0.34,-9.55 1.13,-19.17 1.78,-28.76 2.42,-0.6 4.83,-1.2 7.25,-1.8 38.98,58.17 77.96,116.34 119.63,178.54 z"
         id="path102" />
      <path
         class="o"
         d="m 1674.47,4304.29 v 219.83 c -27.24,-21.24 -56.18,-42.47 -83.17,-65.93 -5.7,-4.95 -9.01,-20.74 -5.45,-26.97 23.62,-41.26 49.37,-81.3 74.64,-121.61 0.93,-1.49 4.02,-1.63 13.98,-5.32 z"
         id="path103" />
      <path
         class="o"
         d="m 2201,6065.33 c -1.61,-18.45 0.59,-82.38 3.82,-102.48 46.99,48.5 54.68,45.08 97.51,102.48"
         id="path104" />
      <path
         class="o"
         d="m 4566.54,1746.45 c 32.88,-24.75 59.71,-46.75 88.71,-65.39 6.61,-4.25 23.02,-0.03 30.98,5.74 41.32,29.92 81.36,61.6 119.93,98.91 -25.42,-4.21 -50.79,-8.75 -76.27,-12.55 -25.75,-3.83 -51.7,-6.34 -77.39,-10.5 -26.41,-4.28 -52.61,-9.86 -85.97,-16.22 z"
         id="path105" />
      <path
         class="o"
         d="m 5108.34,1864.92 c -76.12,-21.27 -149.94,-41.9 -231.81,-64.78 35.06,-20.34 63.66,-38.25 93.65,-53.38 7.07,-3.57 22.14,-1.29 27.92,4.2 37.68,35.78 81.54,65.79 110.24,113.97 z"
         id="path106" />
      <path
         class="o"
         d="m 1691.41,4013.86 c -27.66,-27.81 -53.62,-53.91 -82.29,-82.74 39.39,-43.07 76.23,-83.36 113.07,-123.66 2.3,0.84 4.61,1.68 6.91,2.51 -6.05,68.01 -18.39,134.99 -37.69,203.88 z"
         id="path107" />
      <path
         class="o"
         d="m 5473.45,2019.76 c 30.74,-11.06 57.13,-20.12 83.17,-30.1 15.28,-5.86 27.99,-6.09 39.49,7.96 31.56,38.59 56.5,80.83 76.84,132.99 -69.12,-38.4 -133.33,-74.08 -199.5,-110.85 z"
         id="path108" />
      <path
         class="o"
         d="m 3993.73,1749.43 c -77.92,12.6 -149.47,24.16 -223.14,36.07 18.37,-28.36 35.07,-53.59 51.16,-79.2 8.45,-13.45 19.65,-17.47 34.78,-13.91 46.42,10.92 91.05,26.06 137.2,57.03 z"
         id="path109" />
      <path
         class="o"
         d="m 6879.73,3978.7 c -12.77,-64.77 -25.54,-129.54 -39.03,-197.98 8.68,2.8 15.8,4.08 21.93,7.27 20.17,10.48 40.25,21.2 59.82,32.75 9.74,5.75 21.23,13.4 16.38,26.79 -16.1,44.51 -33.56,88.54 -50.5,132.75 -2.87,-0.52 -5.74,-1.05 -8.61,-1.57 z"
         id="path110" />
      <path
         class="o"
         d="m 6257.95,2631.54 c -44.7,-47.36 -89.4,-94.72 -138.16,-146.39 34.98,-6.45 65.34,-12.78 95.98,-17.02 5.45,-0.75 12.28,6.92 18.08,11.22 1.48,1.1 1.74,4.14 2.16,6.36 9.03,47.81 18.01,95.62 27,143.44 -1.69,0.79 -3.37,1.59 -5.06,2.38 z"
         id="path111" />
      <path
         class="o"
         d="m 2835.51,2176.64 c -52.48,38.29 -104.96,76.57 -162.52,118.56 v -109.55 c 53.23,-16.65 107.96,-1.92 160.4,-15.37 0.71,2.12 1.41,4.23 2.12,6.35 z"
         id="path112" />
      <path
         class="o"
         d="m 6572.08,5650.09 c 32.58,-64.32 63.24,-124.84 96.04,-189.59 12.85,33.12 24.32,60.17 33.46,87.98 2.32,7.07 0.21,20.13 -4.91,24.39 -36.4,30.33 -72.57,61.56 -124.59,77.22 z"
         id="path113" />
      <path
         class="o"
         d="m 6903.19,4238.41 c -5.42,-68.83 -10.45,-132.77 -15.82,-200.98 30.67,18.8 59.21,36.29 87.3,53.5 -10.67,53.25 -34.67,103.45 -71.49,147.48 z"
         id="path114" />
      <path
         class="o"
         d="m 6904.32,4473.07 c -1.07,-13.93 -3.41,-27.89 -2.99,-41.77 1.52,-49.61 3.97,-99.2 6.23,-152.64 28.21,19.66 56.93,39.68 88.04,61.37 -21.16,50.59 -62.33,85.72 -82.13,133.89 -3.05,-0.28 -6.1,-0.56 -9.16,-0.84 z"
         id="path115" />
      <path
         class="o"
         d="m 2439.54,2502.25 c -22.16,24.16 -43.85,47.81 -65.54,71.45 -22.02,24.01 -44.05,48.01 -71.07,77.46 -4.98,-35.22 -9.38,-64.58 -13.16,-94.01 -1.64,-12.78 3.42,-22.63 16.57,-26.09 41.7,-10.97 83.49,-21.62 125.3,-32.15 1.65,-0.42 3.91,1.58 7.9,3.34 z"
         id="path116" />
      <path
         class="o"
         d="m 2486.67,2456.16 c -4.11,-33.6 -8.47,-62.43 -10.83,-91.42 -1.23,-15.06 10.77,-22.77 23.52,-24.67 42.93,-6.41 86.07,-11.39 130.93,-10.73 -46.49,41.05 -92.97,82.1 -143.62,126.82 z"
         id="path117" />
      <path
         class="o"
         d="m 5943.96,2320.3 c 26.35,-6.42 52.59,-13.31 79.08,-19.07 16.2,-3.52 26.75,5.22 31.04,20.05 11.3,39.1 21.72,78.45 28.62,120.09 -51.9,-33.2 -91.01,-79.44 -141.05,-112.55 0.77,-2.84 1.55,-5.68 2.32,-8.51 z"
         id="path118" />
      <path
         class="o"
         d="m 5724.62,2165.58 c 29.08,-8.87 51.64,-16.52 74.63,-22.55 24.82,-6.51 34.17,-1.28 44.83,22.77 16.04,36.18 31.89,72.44 45.03,111.44 -30.76,-11.91 -52.09,-36.83 -79.06,-53.2 -27.79,-16.87 -53.82,-36.64 -85.43,-58.47 z"
         id="path119" />
      <path
         class="o"
         d="m 4304.37,1734.51 c 18.98,-26.61 33.72,-47.51 48.73,-68.22 7.82,-10.78 17.66,-13.96 29.17,-5.57 32.64,23.78 65.16,47.71 102.11,74.78 -61.85,8.58 -117.89,-3.56 -180.01,-0.99 z"
         id="path120" />
      <path
         class="o"
         d="m 4061.12,1744.05 c 20.3,-28.43 37.66,-52.74 55.51,-77.74 47.01,13.07 88.7,31.48 124.85,66.51 -58.21,3.63 -116.42,7.25 -180.36,11.23 z"
         id="path121" />
      <path
         class="o"
         d="m 6532.2,5721.87 c 8.91,25.86 16.77,48.18 24.27,70.62 4.99,14.95 1.5,26.43 -13.9,33.38 -32.91,14.85 -65.62,30.11 -98.91,45.42 1.67,-24.38 33.94,-78.9 88.55,-149.42 z"
         id="path122" />
      <path
         class="o"
         d="m 6384.46,5938.85 c 7.24,27.25 14.01,51 19.73,74.99 2.96,12.41 -1.25,22.77 -14.23,27.19 -35.1,11.95 -63.56,4.79 -101.95,10.97 33.51,-42.82 60.25,-66.87 96.46,-113.15 z"
         id="path123" />
    </g>
  </g>
  <g
     id="b"
     data-name="Layer 7"
     transform="translate(-273.17928,-294.59861)">
    <path
       class="s"
       d="m 4492.87,4848 c 0,0 448.44,-184.89 397.66,444 -34.15,422.89 0,0 0,0 l -531.52,-203.61 133.87,-240.4 z"
       id="path124" />
    <path
       class="s"
       d="m 5550.1,4300.28 c 0,0 448.44,-184.89 397.66,444 -34.15,422.89 0,0 0,0 l -531.52,-203.61 133.87,-240.4 z"
       id="path125" />
    <path
       class="q"
       d="m 4315,4916 346,12 c 0,0 240,18 188,750 -52,732 -340,618 -340,618 0,0 -658,103.7 -626,-357.15 C 3915,5478 4315,4916 4315,4916 Z"
       id="path126" />
    <path
       class="q"
       d="m 5741.34,4522.49 120.44,4.18 c 0,0 83.54,6.27 65.44,261.08 -18.1,254.81 -98.26,217.73 -115.03,219.3 -16.77,1.57 -242.32,-38.6 -221.24,-128.5 11.14,-160.42 150.38,-356.06 150.38,-356.06 z"
       id="path127" />
    <path
       class="r"
       d="m 1784.61,4198.89 c 3,45.02 -97.04,190.08 -97.04,190.08 0,0 -45.58,62.03 -52.8,160.07 -7.22,98.04 -21.23,192.08 8.78,248.11 0,0 -49.59,32.01 -41.8,78.03 7.79,46.02 15.79,152.07 15.79,152.07 0,0 20.01,52.02 74.03,34.01 l -60.22,-150.73 c 0,0 -30.31,-59.97 95.75,-132 0,0 46.56,-29.4 114.59,-1.39 C 1909.72,4805.15 2857,5287 2857,5287 c 0,0 136.78,39.97 162,118 25.22,78.03 107,294 107,294 0,0 207.99,241.76 383.07,263.86 175.07,22.1 717.6,-55.89 717.6,-55.89 0,0 86.04,-2.25 96.04,-94.83 10,-92.58 194.08,-884.93 328.14,-940.95 134.06,-56.02 200.09,66.03 238.1,398.17 0,0 6,54.02 74.03,14.01 68.03,-40.02 222.1,-108.05 222.1,-108.05 l 132.06,40.02 c 0,0 35.35,26.01 102.71,-30.01 67.36,-56.02 397.51,-350.15 397.51,-350.15 0,0 16.01,-6 16.01,-48.02 0,-42.02 -10,-296.13 56.02,-290.13 66.03,6 66.03,240.1 66.03,240.1 l 116.05,-86.04 c 0,0 50.02,-12.01 48.02,-114.05 -2,-102.04 -20.01,-732.32 -20.01,-732.32 l -216.09,-710.98 -58.69,-384.17 -170.74,-320.14 c 0,0 -228.08,-693.64 -869.04,-725.65 L 3050.16,1491.71 c 0,0 -136.06,-20.01 -264.11,68.03 -128.06,88.04 -324.14,192.08 -324.14,192.08 0,0 -28.01,12.01 -36.02,129.39 -8,117.38 21.34,325.48 248.11,406.84 0,0 564.25,266.78 588.26,358.82 0,0 33.35,29.35 -37.35,84.04 -70.7,54.69 -606.93,574.92 -672.29,584.25 -65.36,9.34 -288.13,102.71 -288.13,102.71 0,0 -137.39,74.7 -189.42,198.75 -52.02,124.05 -70.7,246.77 -138.73,250.78 -68.03,4 -166.74,70.7 -162.74,172.07 4,101.38 8,114.38 11,159.4 z"
       id="path128" />
    <path
       class="m"
       d="M 3298.67,2779.67 C 3107,2904 2756,3149 2644,3331 c -16,80 1513,477 1635,447 122,-30 630,-802 630,-802 0,0 -1368.33,-272.33 -1610.33,-196.33 z"
       id="path129" />
    <path
       class="u"
       d="m 3563.67,4082.67 c 0,0 507.86,62.27 789.33,-101.33 0,0 40,-10 0,81.67 -40,91.67 -40,253 -40,253 0,0 -2.67,236 -172,250.67 -145.33,38.67 -574.67,9.33 -625.33,-30.67 -50.67,-40 -218.67,-122.67 48,-453.33 z"
       id="path130" />
    <path
       class="m"
       d="m 4585.56,3727.59 c 0,0 -136.21,198.86 119.62,170.3 255.82,-28.56 82.49,-262.76 82.49,-262.76 l -202.11,92.46 v 0"
       id="path131" />
    <line
       class="i"
       x1="4368.79"
       y1="3993.4399"
       x2="4042.75"
       y2="4246.3301"
       id="line131" />
    <line
       class="i"
       x1="4326.71"
       y1="4116.9702"
       x2="4126.9199"
       y2="4263.0698"
       id="line132" />
    <path
       class="l"
       d="m 3563.67,4082.67 c 0,0 507.86,62.27 789.33,-101.33 0,0 40,-10 0,81.67 -40,91.67 -40,253 -40,253 0,0 -2.67,236 -172,250.67 -145.33,38.67 -574.67,9.33 -625.33,-30.67 -50.67,-40 -218.67,-122.67 48,-453.33 z"
       id="path132" />
    <path
       class="i"
       d="m 4472.23,2776.53 c -12.13,0 -578.72,243.07 -800.26,311.63"
       id="path133" />
    <path
       class="i"
       d="m 4486.8,2840.46 c -12.15,-1.06 -618.8,288 -951.8,374.04"
       id="path134" />
    <path
       class="l"
       d="m 2562.57,1807.33 1393.19,173.72 c 0,0 176.02,28.13 285.72,112.62"
       id="path135" />
    <path
       class="l"
       d="m 3338.15,2665.75 c 0,0 416.84,-24.03 789.69,69.33"
       id="path136" />
  </g>
  <g
     id="c"
     data-name="Layer 8"
     transform="translate(-273.17928,-294.59861)">
    <path
       class="q"
       d="m 6172.98,3025.04 c -62.79,-58.26 -50.83,-166.94 0.02,-218.37 54.7,-55.33 189.33,-48 216,38.67 0,0 111.31,-140.32 222.67,-32 146.67,142.67 0,236 0,236 88,-10.67 100,45.33 100,128 0,67.9 -75.84,154.45 -181.33,134.67 0,0 -480,682.67 -913.33,704 -433.33,21.33 350.67,-746.67 350.67,-746.67 0,0 153.32,-54.96 205.32,-244.3 z"
       id="path137" />
    <path
       class="q"
       d="m 4266.33,2120.49 c 0,0 -210,14.84 24,702.84 0,0 -22.33,308.67 199.67,422.67 0,0 -116,266 111,498 0,0 32,232 566,372 l 450,-100 c 0,0 504,-396 318,-544 0,0 92,-178 -62,-390 0,0 192,-148 92,-358 0,0 230,-216 196,-414 -34,-198 -852,210 -812,258 -167.06,-8.62 -323.71,18.72 -466.27,94.71 0,0 -424.4,-608.05 -616.4,-542.22 z"
       id="path138" />
    <path
       class="q"
       d="m 2137,3716 c -60,0 -172,140 -202,232 -30,92 -38,362 -2,432 15.55,30.24 127.4,185.44 320,294 253.19,142.71 608.65,242 696.07,242 153.93,0 301.93,-224 309.93,-376 8,-152 -76,-380 -168,-468 -92,-88 -894,-356 -954,-356 z"
       id="path139" />
    <path
       class="q"
       d="m 1667,5060 c 14,88 1287.42,894.4 1816.71,901.2 0,0 -309.38,-130.33 -402.04,-401.2 -92.67,-270.86 -47.96,-193.39 -322.69,-329.96 -274.73,-136.57 -905.97,-446.86 -905.97,-446.86 0,0 -86.29,-53.29 -164.54,19.77 -78.24,73.06 -60.46,65.06 -55.46,132.06 11,82 34,125 34,125 z"
       id="path140" />
    <path
       class="q"
       d="m 4023,5304 c 0,0 -390.73,53.81 -582,-24 -118,-48 -40,136 -40,136 0,0 64,233.78 196,250.79 132,17.01 238,38.08 306,0.65 68,-37.43 190,-223.43 162,-283.43 -28,-60 -42,-80 -42,-80 z"
       id="path141" />
    <path
       class="q"
       d="m 4675.67,4052 c 0,0 -25.33,-181.33 154.67,-170.67 218.67,10.67 210.67,214.67 210.67,214.67 l 6.67,250.67 c 0,0 -24,176 -168,174.67 -144,-1.33 -206.3,-5.33 -206.49,-78.67 -0.18,-73.33 0,-206.67 0,-206.67 0,0 -166.85,73.33 -176.18,-84 0,0 -20,-68 28,-68 48,0 45.33,50.67 45.33,50.67 0,0 -10.67,48 76,22.67 l 36,-10.67 z"
       id="path142" />
    <path
       class="k"
       d="m 5631.16,4037.42 c 0,0 496.91,-406.18 310.91,-554.18 0,0 84.57,-203.74 -69.43,-415.74 0,0 192.35,-133.5 92.35,-343.5 0,0 237.07,-204.75 203.07,-402.75 -34,-198 -856.07,195.75 -812,258 -167.06,-8.62 -323.71,18.72 -466.27,94.71 0,0 -424.4,-608.05 -616.4,-542.22 0,0 -210,14.84 24,702.84 0,0 -22.33,308.67 199.67,422.67 0,0 -116,266 111,498 0,0 64.26,232.75 598.26,372.75"
       id="path143" />
    <circle
       class="n"
       cx="6263.0098"
       cy="2912.53"
       r="59"
       id="circle143" />
    <circle
       class="n"
       cx="6526.4702"
       cy="2912.53"
       r="59"
       id="circle144" />
    <circle
       class="n"
       cx="6585.4702"
       cy="3186"
       r="59"
       id="circle145" />
    <circle
       class="n"
       cx="6303.6802"
       cy="3074.3401"
       r="73.260002"
       id="circle146" />
    <circle
       class="n"
       cx="6406.8901"
       cy="3180.6201"
       r="73.260002"
       id="circle147" />
    <circle
       class="n"
       cx="6382.5898"
       cy="3097.3601"
       r="73.260002"
       id="circle148" />
    <path
       class="t"
       d="m 5209,3407 c 9,-40 -63.72,-6 -62,-87 -0.03,-107 69,-117 125,-130 56,-13 156,-36 186,60 30,96 -27,64 -35,93 -8,29 48,105 -71,116 -80,55 -152,-12 -143,-52 z"
       id="path148" />
    <circle
       class="t"
       cx="4858.5"
       cy="3226.1699"
       r="97.5"
       id="circle149" />
    <circle
       class="t"
       cx="5664.3301"
       cy="3089.8601"
       r="97.5"
       id="circle150" />
    <path
       class="k"
       d="m 5521,3245.33 c 0,0 22.67,60 114.67,85.33 92,25.33 111.77,99.33 111.77,99.33"
       id="path150" />
    <path
       class="k"
       d="m 4999.67,3393.67 c 0,0 -9.33,102.33 -114.67,147.66"
       id="path151" />
    <path
       class="k"
       d="m 4721,3550 c -92,-7 -138.75,112.05 -114.75,206.25"
       id="path152" />
  </g>
  <g
     id="d"
     data-name="Layer 12"
     transform="translate(-273.17928,-294.59861)">
    <path
       class="v"
       d="m 4413,2796 c 0,0 -152.67,-154.67 -98,-532 292,23.33 384,462 384,462 0,0 -218,226.67 -214.63,340 -28.04,22.67 -165.37,-218 -71.37,-270 z"
       id="path153" />
    <path
       class="v"
       d="m 5521,2627.81 c 0,0 243.33,96.19 306,324.19 104.67,-156.67 -4.67,-144 14,-247.62 0,0 217.33,-124.38 197.79,-295.73 C 5764.33,2409.33 5521,2627.8 5521,2627.8 Z"
       id="path154" />
    <path
       class="v"
       d="m 5287.67,3706.67 c 52.44,-45.33 68.44,-43.11 122.67,-26.67 92,42.67 189.33,62.65 408,-94.67 141.33,42.67 -204,244.01 -204,244.01 0,0 -141.33,230.67 -498.67,113.33 -357.33,-117.33 -408.35,-196.43 -396,-241.33 14.67,-53.33 162.67,52 244,90.67 88,29.33 256,-1.33 324,-85.33 z"
       id="path155" />
    <circle
       class="r"
       cx="5712.5"
       cy="3068.8601"
       r="28.5"
       id="circle155" />
    <circle
       class="r"
       cx="4905.0298"
       cy="3186"
       r="28.5"
       id="circle156" />
    <path
       class="n"
       d="m 5568.4,3707.42 c 72.89,45.78 140.41,396.08 41.6,500.58 -68.1,72.03 -226.38,101.34 -317,50.67 -56.59,-31.64 -87.17,-97.1 -96,-116 -21.48,-45.97 -22,-77.85 -30.67,-124 -9.6,-51.13 -39.13,-176.62 -81.35,-218.4 175.11,-27.56 217.15,-128.07 253.41,-132.58 58.17,-7.24 143.34,44.18 230.01,39.74 z"
       id="path156" />
    <path
       class="g"
       d="m 5338.39,3667.68 c 6.17,37.21 69.26,90.12 102.61,183.32 44.41,124.1 34.58,232.5 26,286"
       id="path157" />
    <path
       class="j"
       d="m 5325,3259.33 c 0,0 51.39,100 28.67,170.67"
       id="path158" />
    <path
       class="h"
       d="m 5427,3282.67 c -8.07,-19.72 -25.53,-23.8 -36.67,-20 -13.41,4.58 -17.05,28.12 -10.67,44 6.14,15.28 27.56,39.11 46,41.67"
       id="path159" />
    <path
       class="h"
       d="m 5213,3330.67 c 7.77,-23.21 25.41,-37.37 39.33,-35.33 18.42,2.7 30.43,33.78 22,56.67 -7.5,20.36 -54,40.61 -69.33,45.17"
       id="path160" />
    <ellipse
       class="m"
       cx="5860.5601"
       cy="4771.3398"
       rx="139.07001"
       ry="36.779999"
       transform="rotate(-87,5860.8951,4771.3185)"
       id="ellipse160" />
    <ellipse
       class="m"
       cx="4633.79"
       cy="5642.6699"
       rx="436"
       ry="136.81"
       transform="rotate(-87,4634.1074,5642.7101)"
       id="ellipse161" />
  </g>
  <g
     id="e"
     data-name="Layer 2"
     transform="translate(-273.17928,-294.59861)">
    <path
       class="o"
       d="m 1635.64,6193.35 c 23.33,-17 143.06,-15.94 164.67,0.78 20.22,16.11 7.06,557.94 7.06,557.94 0,0 14,72 72,72 58,0 63,-71 63,-71 0,0 -7.56,-548.22 6.11,-561.89 13.67,-13.67 148.89,-14.56 161.89,-2.22 13,12.33 0,591.11 0,591.11 0,0 -19,224 -241.5,221 -222.5,-3 -241.5,-230 -241.5,-230 0,0 -15.06,-560.72 8.28,-577.72 z"
       id="path161" />
    <path
       class="o"
       d="m 6314.69,6190.74 c -11.33,15 -21.67,758.67 1.67,773 17.33,18.33 384.83,56.17 395.17,49.17 10.33,-7 12.83,-146.5 4.5,-158.17 -8.33,-11.67 -221.33,-34.67 -225.33,-40 -4,-5.33 -6,-156.67 0,-160 6,-3.33 169,16 177.33,8 8.33,-8 9,-150 0,-158.67 -9,-8.67 -171,2 -177.33,-10.67 -6.33,-12.67 -8.33,-135.33 1.33,-142.67 9.67,-7.33 203.33,10.33 213,2.33 9.67,-8 13,-155.67 5.67,-162.33 -7.33,-6.66 -384.67,-15 -396,0 z"
       id="path162" />
    <polygon
       class="o"
       points="5548.03,6182.33 5713.36,6182.33 5713.36,6917.4 5545.36,6905.4 5542.69,6533.07 5452.03,6772.07 5353.36,6768.07 5256.03,6533.07 5257.36,6894.74 5098.69,6889.07 5105.36,6177.07 5248.03,6182.33 5401.36,6514.74 "
       id="polygon162" />
    <path
       class="o"
       d="m 4387.48,6405.8 c 18.92,1.85 53.99,-22.15 87.22,-120.44 -27.69,-105.14 -500.12,-267.54 -490.08,276.02 10.04,543.55 490.42,335.89 490.08,209.91 -15.23,-55.38 -67.84,-90.45 -94.14,-81.68 -19.84,15.23 -197.97,188.28 -218.74,-134.29 6.92,-330.87 183.43,-195.2 225.66,-149.52 z"
       id="path163" />
    <path
       class="o"
       d="m 1493.36,6582.07 c 66.67,-23.33 150.67,-364.67 -116,-394 0,0 -248.78,-13.89 -269.22,6.78 -18.78,98.11 -18.78,856.78 -6.78,897.22 29.33,29.78 216.44,-28 320,-58 103.56,-30 278.67,-251.33 72,-452 z m -221.33,-241.93 c 0,0 121.32,-23.44 122.7,90.3 1.38,113.74 -122.7,90.3 -122.7,90.3 z m 0,546.6 v -201.33 c 0,0 138.67,-45.33 140,93.33 1.33,138.67 -140,108 -140,108 z"
       id="path164" />
    <path
       class="o"
       d="m 2578.69,6532.07 c 66.67,-23.33 127.67,-301 -98.67,-348.57 0,0 -264.34,-5.43 -284.78,15.23 -18.78,98.11 -9.89,695.56 2.11,736 29.33,29.78 218.67,12.44 310.67,-10.67 104.56,-26.27 264.67,-202.67 70.67,-392 z m -220.33,-199.33 c 0,0 112.78,-14.44 115.89,61.11 4.53,109.92 -117.56,79.59 -117.56,79.59 z m -1.67,453.33 v -166.89 c 0,0 130.92,-15.66 140,60.92 15.33,129.3 -140,105.97 -140,105.97 z"
       id="path165" />
    <path
       class="o"
       d="m 5797.36,6198.07 c -19.33,23.33 -16.17,709.33 -8,720 8.17,10.67 164.67,29.33 172,24 7.33,-5.33 0,-240 0,-240 0,0 291.22,60 290,-272 -1.33,-364 -434,-240.67 -454,-232 z m 165.33,351.37 -2,-211.3 c 0,0 126.44,-36.29 127.78,102.38 1.33,138.67 -125.78,108.93 -125.78,108.93 z"
       id="path166" />
    <path
       class="o"
       d="m 7161.36,6705.4 c 0,0 108,-64 89.33,-290.67 -18.67,-226.67 -198.55,-232.92 -235.49,-235.17 -36.94,-2.26 -226.17,3.51 -233.84,11.17 -7.67,7.67 -7.67,822.33 0.5,831.17 8.17,8.83 154.67,33.83 167.5,26.5 12.83,-7.33 0,-291 4.44,-296.33 4.44,-5.33 25.11,-0.67 31.56,4.89 6.44,5.56 79.11,303.56 93.33,312.44 14.22,8.89 173.56,28 186.67,20.89 13.11,-7.11 -104,-384.89 -104,-384.89 z m -204.67,-127.27 v -226.06 c 0,0 117.33,-27.11 118.67,111.56 1.33,138.67 -118.67,114.51 -118.67,114.51 z"
       id="path167" />
    <path
       class="o"
       d="m 3116.03,6518.74 c 66.67,-23.33 128,-297.33 -101.33,-337.33 0,0 -259.56,-7.33 -280,13.33 -18.78,98.11 -14.67,671.56 -2.67,712 29.33,29.78 218.67,2.67 310.67,-10.67 106.7,-15.46 254,-204.67 73.33,-377.33 z m -220.71,-190.66 c 0,0 111.6,-16.23 114.71,59.33 4.53,109.91 -116.32,76.67 -116.32,76.67 l 1.61,-135.99 z m -1.61,431.75 v -157.1 c 0,0 125.66,-20.33 138.32,60.33 20.2,128.63 -138.32,96.76 -138.32,96.76 z"
       id="path168" />
    <path
       class="o"
       d="m 3568.36,6188.07 c -18.33,-16.67 -137,-22.88 -163,-5.21 -26,17.67 -212.01,686.56 -199.65,701.56 12.36,15 157.65,16.99 171.65,4.65 14,-12.34 33,-135 33,-135 l 150,1 c 0,0 29,122.33 43,134 14,11.67 156.5,11.5 169.17,-4.83 12.67,-16.33 -185.83,-679.5 -204.17,-696.17 z m -125.67,422.67 40,-189.33 45.33,189.33 z"
       id="path169" />
    <path
       class="o"
       d="m 4850.62,6187.48 c -18.33,-16.67 -137,-22.88 -163,-5.21 -26,17.67 -212.01,686.56 -199.65,701.56 12.36,15 157.65,16.99 171.65,4.65 14,-12.34 33,-135 33,-135 l 150,1 c 0,0 29,122.33 43,134 14,11.67 156.5,11.5 169.17,-4.83 12.67,-16.33 -185.83,-679.5 -204.17,-696.17 z m -123.66,423.25 42.54,-201.33 48.21,201.33 h -90.74 z"
       id="path170" />
    <path
       class="p"
       d="m 3055,7290.6 c 0,-59.02 0.83,-112.39 -0.44,-165.7 -0.45,-19.06 5.66,-24.37 24.22,-24.8 62.08,-1.42 62.34,-2.12 62.04,58.68 -0.43,89.29 -1.69,178.57 -1.69,267.85 0,20.49 -5.86,26.2 -27.78,27.13 -29.16,1.23 -48.24,-8.17 -66.05,-30.18 -36.97,-45.68 -75.9,-89.77 -114.5,-134.1 -5.33,-6.12 -13.36,-9.9 -20.13,-14.77 -3.05,8.66 -8.71,17.32 -8.7,25.98 0,39.07 0.67,78.2 2.97,117.19 1.52,25.84 -8.86,34.92 -34.12,34.88 -56.67,-0.08 -56.29,0.73 -55.92,-55.76 0.57,-88.42 1.15,-176.86 0.41,-265.28 -0.19,-22.82 6.64,-29.62 30.28,-31.33 34.84,-2.53 55.3,11.93 75.01,38.41 34.56,46.43 72.45,90.4 109.54,134.9 5.1,6.12 13.61,9.42 24.86,16.9 z"
       id="path171" />
    <path
       class="p"
       d="m 5541.24,7278.15 c 0.47,104.9 -79.46,180.64 -190.82,180.82 -111.95,0.17 -192.27,-74.07 -193.26,-178.64 -1.02,-107.25 81.16,-187.75 194.26,-187.86 104.82,-0.09 193.61,79.04 189.82,185.68 z m -293.04,-3.47 c -0.9,55.5 44.7,106.17 96.94,107.72 58.68,1.74 106.07,-45.14 107.26,-106.11 1.1,-56.87 -44.29,-103.87 -101.54,-105.12 -57.26,-1.25 -101.69,43.55 -102.66,103.5 z"
       id="path172" />
    <path
       class="p"
       d="m 3576.34,7275.34 c 0.06,106.32 -80.07,182.44 -192.05,182.44 -108.8,0 -190.23,-76.66 -190.13,-178.99 0.1,-102.98 86.15,-186.5 191.46,-185.81 107.91,0.7 190.66,79.82 190.72,182.36 z m -185,-105.01 c -69.32,-1.67 -107.61,54.16 -108.41,104.76 -0.99,62.49 43.92,108.63 101.57,108.3 63.75,-0.36 106.25,-43.42 105.38,-106.74 -0.8,-57.92 -45.74,-106.41 -98.54,-106.33 z"
       id="path173" />
    <path
       class="p"
       d="m 4167.68,7239.7 c 1.56,2.91 2.27,3.67 2.36,4.49 7.66,70.97 12.33,63.58 -53.51,63.56 -31.26,0 -62.51,0.45 -93.77,0.85 -1.57,0.02 -3.11,1.47 -8.14,4 0,14.9 -1.21,31.72 0.67,48.19 0.64,5.59 8.17,12.55 14.12,14.88 8.83,3.45 19.03,4.4 28.68,4.53 33.95,0.48 67.91,0.14 101.87,0.16 35.85,0.03 52.51,20.94 40.32,54.9 -3.03,8.44 -18.48,17.45 -28.35,17.6 -72.33,1.1 -144.7,-0.34 -217.06,-0.13 -18.37,0.05 -26.1,-7.48 -26.09,-25.3 0.09,-99.03 0.29,-198.06 -0.28,-297.09 -0.15,-25.65 10.82,-34.19 35.99,-33.3 68.42,2.42 136.91,3.43 205.37,3.88 18.18,0.12 22.63,8.63 23.59,24.43 2.69,44.24 1.92,45.18 -41.76,44.76 -35.64,-0.34 -71.36,1.53 -106.9,-0.36 -26.12,-1.39 -31.27,9.81 -31.09,33.14 0.18,23.94 5.05,36.95 32.68,35.36 32.93,-1.9 66.06,-0.56 99.1,-0.34 7.83,0.05 15.65,1.22 22.17,1.76 z"
       id="path174" />
    <path
       class="p"
       d="m 4523.56,7203.34 c -29.88,-20.88 -63.69,-33.62 -104.54,-31.53 -55.06,2.83 -90.85,50.93 -92.7,92.54 -2.85,64.28 29.9,110.7 83.99,117.92 13.13,1.75 26.77,1.29 40.03,0.15 24.74,-2.14 39.12,-15.49 39.5,-41.27 0.31,-21.31 0.06,-42.64 0.06,-68.69 23.38,0 43.72,-1.5 63.59,0.91 6.06,0.73 15.24,12.11 15.44,18.83 1.05,36.21 0.29,72.51 -1.31,108.72 -0.3,6.74 -5.63,15.67 -11.36,19.41 -83.78,54.65 -219,51.36 -282.21,-31.65 -58.71,-77.11 -56.61,-204.15 52.7,-268.98 63.23,-37.5 160.69,-42.38 229.61,18.41 12.91,11.39 15.44,20.74 2.47,32.71 -11.07,10.22 -22.15,20.44 -35.27,32.54 z"
       id="path175" />
    <path
       class="p"
       d="m 4955.53,7160.46 c -16.76,15.22 -32.36,29.38 -41.27,37.47 -39.91,-11.25 -72.98,-26.37 -106.92,-28.66 -42.21,-2.84 -75.97,20.26 -91.86,60.93 -16.53,42.31 -16.69,84.84 17.01,120.12 31.18,32.64 70.49,41.59 113.06,27.66 9.24,-3.02 17.83,-15.68 21.58,-25.81 4.47,-12.1 2.96,-26.31 4.87,-39.49 1.83,-12.61 2.63,-34.83 7.53,-35.88 20.38,-4.38 42.2,-3.29 63.32,-1.75 3.28,0.24 7.86,13.19 8.03,20.36 0.74,31.26 1.58,62.67 -0.83,93.77 -0.92,11.89 -7.44,27.03 -16.54,34.01 -62.97,48.39 -189.68,44.98 -252.24,-6.77 -57.26,-47.37 -74.21,-110.47 -58.95,-180.8 15.1,-69.64 60.95,-113.99 129.35,-132.45 68.69,-18.54 133.74,-12.74 188.58,38.83 5.01,4.72 8.89,10.64 15.3,18.45 z"
       id="path176" />
    <path
       class="p"
       d="m 3630.13,7273.53 c 0,-48.2 0.95,-96.43 -0.44,-144.59 -0.62,-21.39 8.83,-29.32 27.87,-29.31 15.06,0 30.79,-0.97 44.88,3.12 6.14,1.78 12.58,15.14 12.63,23.28 0.48,72.26 -0.56,144.52 -0.91,216.78 -0.18,37.42 0.05,37.48 38.02,37.56 35.72,0.08 71.47,0.99 107.14,-0.34 21.51,-0.8 29.46,7.77 27.46,28.28 -0.69,7.08 -0.55,14.3 -0.09,21.41 1,15.69 -5.58,22.97 -21.77,22.89 -71.43,-0.33 -142.87,-0.39 -214.3,-0.1 -21.19,0.09 -21.89,-14.14 -21.93,-29.08 -0.13,-49.97 -0.05,-99.95 -0.05,-149.92 0.49,0 0.98,0 1.48,0 z"
       id="path177" />
    <path
       class="p"
       d="m 5019.7,7274.69 c 0,-50.69 0.43,-101.38 -0.27,-152.05 -0.2,-14.71 4.56,-20.45 19.51,-21.61 63.35,-4.89 63.29,-5.27 63.49,57.87 0.28,88.23 0.22,176.47 1.21,264.7 0.24,21.74 -7.31,29.59 -29.62,29.39 -55.05,-0.5 -55.36,0.47 -55.99,-53.03 -0.49,-41.75 -0.1,-83.51 -0.1,-125.27 0.59,0 1.18,0 1.76,0 z"
       id="path178" />
  </g>
  <g
     id="f"
     data-name="Layer 13"
     transform="translate(-273.17928,-294.59861)">
    <path
       class="l"
       d="m 5192,5167 c 0,0 39.67,-40 38.33,-166 -1.34,-126 -1.33,-682.33 -1.33,-682.33"
       id="path179" />
    <path
       class="l"
       d="m 5435.67,4376 -2.67,631 c 0,0 -5,71 61,29"
       id="path180" />
    <path
       class="l"
       d="m 5746.73,4096.02 -8.4,669.69 c 0,0 12,63.87 -64,119.69"
       id="path181" />
    <path
       class="l"
       d="m 1960.22,3924.11 c 0,0 1111.4,489.77 1236.78,425.22"
       id="path182" />
    <path
       class="l"
       d="m 1943.58,4099.26 c 0,0 1157.37,505.28 1282.75,440.74"
       id="path183" />
    <path
       class="l"
       d="m 1943.58,4281.23 c 0,0 1096.04,496.48 1221.42,431.94"
       id="path184" />
    <path
       class="k"
       d="m 5967.67,3269.33 c 0,0 153.32,-54.96 205.32,-244.3 -62.79,-58.26 -50.83,-166.94 0.02,-218.37 54.7,-55.33 189.33,-48 216,38.67 0,0 111.31,-140.32 222.67,-32 146.67,142.67 0,236 0,236 88,-10.67 100,45.33 100,128 0,67.9 -75.84,154.45 -181.33,134.67 0,0 -447.33,656 -870.33,704"
       id="path185" />
    <path
       class="k"
       d="m 5650.28,2399.31 c 0,0 -227.98,-693.33 -868.66,-725.33 l -1734.01,-172 c 0,0 -136,-20 -264,68 -128,88 -324,192 -324,192 0,0 -28,12 -36,129.33 -8,117.33 21.33,325.33 248,406.67 0,0 564,266.67 588,358.67 0,0 33.33,29.33 -37.33,84 -70.67,54.67 -606.67,574.67 -672,584 -65.33,9.33 -288,102.67 -288,102.67 0,0 -137.33,74.67 -189.33,198.67 -52,124 -70.67,246.67 -138.67,250.67 -68,4 -166.67,70.67 -162.67,172 4,101.33 8,114.33 11,159.33 3,45 -97,190 -97,190 0,0 -45.56,62 -52.78,160 -7.22,98 -21.22,192 8.78,248 0,0 -49.56,32 -41.78,78 7.78,46 15.78,152 15.78,152 0,0 20,52 74,34 0,0 -39.23,6.37 107.68,107.33 0,0 1145.12,775.7 1686.42,782.2"
       id="path186" />
    <path
       class="k"
       d="m 6095.61,3804 c 0,0 18,639.97 20,741.97 2,102 -48,114 -48,114 l -116,86 c 0,0 0,-234 -66,-240 -66,-6 -56,248 -56,290 0,42 -16,48 -16,48 0,0 -330,294 -397.33,350 -67.33,56 -102.67,30 -102.67,30 l -132,-40 c 0,0 -154,68 -222,108 -68,40 -74,-14 -74,-14 -38,-332 -104,-454 -238,-398 -134,56 -318,848 -328,940.54 -10,92.54 -96,94.79 -96,94.79 0,0 -668.47,81.47 -754.02,39.46"
       id="path187" />
  </g>
</svg>
